%TF.GenerationSoftware,KiCad,Pcbnew,10.0.0*%
%TF.CreationDate,2026-10-02T22:50:54-03:00*%
%TF.ProjectId,chufebu-v-0-rev-a,63687566-6562-4752-9d76-2d302d726576,rev?*%
%TF.SameCoordinates,Original*%
%TF.FileFunction,Legend,Top*%
%TF.FilePolarity,Positive*%
%FSLAX46Y46*%
G04 Gerber Fmt 4.6, Leading zero omitted, Abs format (unit mm)*
G04 Created by KiCad (PCBNEW 10.0.0) date 2026-10-02 22:50:54*
%MOMM*%
%LPD*%
G01*
G04 APERTURE LIST*
%ADD10C,0.000000*%
%ADD11C,0.162500*%
%ADD12C,0.250000*%
%ADD13C,0.150000*%
%ADD14C,0.120000*%
G04 APERTURE END LIST*
D10*
G36*
X115092946Y-50233486D02*
G01*
X115099363Y-50667821D01*
X115015787Y-50667821D01*
X114932213Y-50667821D01*
X114938615Y-50233486D01*
X114945023Y-49799163D01*
X115015787Y-49799163D01*
X115086528Y-49799163D01*
X115092946Y-50233486D01*
G37*
G36*
X115028335Y-49441809D02*
G01*
X115034388Y-49442199D01*
X115040145Y-49442902D01*
X115045609Y-49443921D01*
X115050752Y-49445279D01*
X115055634Y-49446936D01*
X115060221Y-49448922D01*
X115064516Y-49451244D01*
X115068546Y-49453897D01*
X115072294Y-49456883D01*
X115075781Y-49460200D01*
X115078986Y-49463861D01*
X115081947Y-49467865D01*
X115084645Y-49472214D01*
X115087089Y-49476903D01*
X115089284Y-49481953D01*
X115091206Y-49487349D01*
X115092911Y-49493107D01*
X115094367Y-49499231D01*
X115095588Y-49505709D01*
X115096591Y-49512545D01*
X115097889Y-49527336D01*
X115098322Y-49543630D01*
X115098265Y-49557282D01*
X115097994Y-49569326D01*
X115097426Y-49579856D01*
X115096481Y-49589009D01*
X115095830Y-49593088D01*
X115095044Y-49596845D01*
X115094108Y-49600298D01*
X115093024Y-49603469D01*
X115091760Y-49606361D01*
X115090326Y-49608984D01*
X115088692Y-49611362D01*
X115086866Y-49613504D01*
X115084808Y-49615419D01*
X115082514Y-49617116D01*
X115079991Y-49618610D01*
X115077211Y-49619924D01*
X115074164Y-49621054D01*
X115070841Y-49622008D01*
X115067232Y-49622839D01*
X115063324Y-49623507D01*
X115054538Y-49624508D01*
X115044403Y-49625084D01*
X115032829Y-49625367D01*
X115019715Y-49625426D01*
X115003593Y-49625112D01*
X114987954Y-49624203D01*
X114973139Y-49622791D01*
X114959579Y-49620892D01*
X114953377Y-49619788D01*
X114947622Y-49618606D01*
X114942385Y-49617342D01*
X114937686Y-49615983D01*
X114933594Y-49614566D01*
X114930152Y-49613079D01*
X114927407Y-49611551D01*
X114925377Y-49609976D01*
X114924578Y-49609116D01*
X114923781Y-49608073D01*
X114922222Y-49605555D01*
X114920722Y-49602459D01*
X114919277Y-49598844D01*
X114917902Y-49594741D01*
X114916608Y-49590186D01*
X114915392Y-49585235D01*
X114914277Y-49579924D01*
X114913259Y-49574304D01*
X114912356Y-49568379D01*
X114911556Y-49562228D01*
X114910907Y-49555875D01*
X114910367Y-49549380D01*
X114909974Y-49542765D01*
X114909736Y-49536074D01*
X114909659Y-49529357D01*
X114909820Y-49520311D01*
X114910331Y-49511968D01*
X114911214Y-49504316D01*
X114912488Y-49497296D01*
X114913277Y-49494015D01*
X114914177Y-49490868D01*
X114915201Y-49487873D01*
X114916337Y-49485019D01*
X114917586Y-49482293D01*
X114918971Y-49479689D01*
X114920466Y-49477215D01*
X114922088Y-49474861D01*
X114923872Y-49472621D01*
X114925766Y-49470499D01*
X114927816Y-49468464D01*
X114930000Y-49466537D01*
X114932324Y-49464712D01*
X114934797Y-49462975D01*
X114937427Y-49461317D01*
X114940227Y-49459744D01*
X114946284Y-49456853D01*
X114953007Y-49454217D01*
X114960424Y-49451829D01*
X114968565Y-49449636D01*
X114985449Y-49445894D01*
X115001018Y-49443314D01*
X115008322Y-49442486D01*
X115015310Y-49441950D01*
X115021972Y-49441725D01*
X115028335Y-49441809D01*
G37*
G36*
X117344553Y-48124082D02*
G01*
X117421198Y-48131347D01*
X117432983Y-48463553D01*
X117436933Y-48568251D01*
X117440824Y-48649087D01*
X117445345Y-48709744D01*
X117448049Y-48733673D01*
X117451149Y-48753945D01*
X117454737Y-48771016D01*
X117458894Y-48785363D01*
X117463707Y-48797442D01*
X117469251Y-48807710D01*
X117475617Y-48816637D01*
X117482884Y-48824678D01*
X117500453Y-48839967D01*
X117507289Y-48845113D01*
X117514405Y-48849923D01*
X117521794Y-48854407D01*
X117529434Y-48858552D01*
X117545377Y-48865851D01*
X117562073Y-48871824D01*
X117579378Y-48876473D01*
X117597141Y-48879779D01*
X117615213Y-48881767D01*
X117633443Y-48882429D01*
X117651675Y-48881767D01*
X117669735Y-48879779D01*
X117687506Y-48876455D01*
X117704820Y-48871813D01*
X117721512Y-48865845D01*
X117737442Y-48858536D01*
X117745084Y-48854383D01*
X117752476Y-48849905D01*
X117759591Y-48845094D01*
X117766416Y-48839945D01*
X117775734Y-48832274D01*
X117779998Y-48828488D01*
X117783984Y-48824643D01*
X117787741Y-48820707D01*
X117791252Y-48816604D01*
X117794540Y-48812272D01*
X117797616Y-48807671D01*
X117800488Y-48802736D01*
X117803163Y-48797402D01*
X117805653Y-48791615D01*
X117807974Y-48785318D01*
X117810132Y-48778462D01*
X117812135Y-48770975D01*
X117814000Y-48762803D01*
X117815721Y-48753896D01*
X117817332Y-48744192D01*
X117818831Y-48733637D01*
X117820212Y-48722157D01*
X117821528Y-48709705D01*
X117822758Y-48696235D01*
X117823898Y-48681670D01*
X117825005Y-48665954D01*
X117826038Y-48649051D01*
X117828032Y-48611388D01*
X117829945Y-48568218D01*
X117831874Y-48519084D01*
X117833885Y-48463525D01*
X117845679Y-48131347D01*
X117916430Y-48131347D01*
X117987176Y-48131347D01*
X117993587Y-48565674D01*
X118000000Y-49000000D01*
X117928736Y-49000000D01*
X117920083Y-48999864D01*
X117912002Y-48999456D01*
X117904469Y-48998784D01*
X117897511Y-48997838D01*
X117891096Y-48996608D01*
X117885258Y-48995122D01*
X117879974Y-48993366D01*
X117875243Y-48991341D01*
X117871080Y-48989020D01*
X117867460Y-48986447D01*
X117865870Y-48985067D01*
X117864403Y-48983593D01*
X117863086Y-48982070D01*
X117861908Y-48980481D01*
X117860865Y-48978812D01*
X117859957Y-48977087D01*
X117859207Y-48975281D01*
X117858586Y-48973411D01*
X117858094Y-48971472D01*
X117857747Y-48969471D01*
X117857543Y-48967396D01*
X117857474Y-48965256D01*
X117857409Y-48961165D01*
X117857206Y-48957349D01*
X117856903Y-48953798D01*
X117856456Y-48950530D01*
X117855858Y-48947520D01*
X117855153Y-48944787D01*
X117854300Y-48942325D01*
X117853298Y-48940142D01*
X117852158Y-48938210D01*
X117850889Y-48936568D01*
X117849456Y-48935187D01*
X117847884Y-48934083D01*
X117846157Y-48933248D01*
X117844300Y-48932687D01*
X117842267Y-48932393D01*
X117840074Y-48932382D01*
X117837734Y-48932633D01*
X117835234Y-48933161D01*
X117832576Y-48933958D01*
X117829747Y-48935025D01*
X117826751Y-48936374D01*
X117823602Y-48937982D01*
X117820268Y-48939874D01*
X117816763Y-48942038D01*
X117813082Y-48944478D01*
X117809248Y-48947183D01*
X117805201Y-48950155D01*
X117800996Y-48953418D01*
X117796605Y-48956941D01*
X117792029Y-48960742D01*
X117782315Y-48969164D01*
X117776421Y-48973901D01*
X117769674Y-48978394D01*
X117762140Y-48982646D01*
X117753859Y-48986646D01*
X117735260Y-48993906D01*
X117714282Y-49000128D01*
X117691267Y-49005323D01*
X117666643Y-49009447D01*
X117640780Y-49012494D01*
X117614067Y-49014453D01*
X117586881Y-49015265D01*
X117559618Y-49014957D01*
X117532660Y-49013493D01*
X117506398Y-49010835D01*
X117481224Y-49006980D01*
X117457506Y-49001912D01*
X117435647Y-48995604D01*
X117416026Y-48988026D01*
X117416026Y-48988025D01*
X117404303Y-48982611D01*
X117393212Y-48977064D01*
X117382725Y-48971326D01*
X117372822Y-48965343D01*
X117363492Y-48959057D01*
X117354715Y-48952425D01*
X117346473Y-48945381D01*
X117338745Y-48937848D01*
X117331541Y-48929788D01*
X117324816Y-48921149D01*
X117318577Y-48911846D01*
X117312778Y-48901872D01*
X117307436Y-48891123D01*
X117302494Y-48879560D01*
X117297976Y-48867130D01*
X117293849Y-48853766D01*
X117290105Y-48839410D01*
X117286708Y-48824017D01*
X117283664Y-48807524D01*
X117280945Y-48789868D01*
X117278538Y-48770995D01*
X117276419Y-48750860D01*
X117274584Y-48729384D01*
X117273009Y-48706528D01*
X117271686Y-48682230D01*
X117270582Y-48656426D01*
X117269006Y-48600089D01*
X117268163Y-48537070D01*
X117267904Y-48466903D01*
X117267904Y-48116826D01*
X117344553Y-48124082D01*
G37*
G36*
X116520799Y-48702308D02*
G01*
X116528886Y-48702918D01*
X116539312Y-48704214D01*
X116548629Y-48705682D01*
X116556874Y-48707387D01*
X116560614Y-48708380D01*
X116564122Y-48709446D01*
X116567383Y-48710603D01*
X116570431Y-48711889D01*
X116573259Y-48713299D01*
X116575864Y-48714836D01*
X116578287Y-48716507D01*
X116580496Y-48718324D01*
X116582521Y-48720322D01*
X116584373Y-48722478D01*
X116586047Y-48724831D01*
X116587560Y-48727361D01*
X116588915Y-48730096D01*
X116590116Y-48733032D01*
X116591186Y-48736191D01*
X116592117Y-48739599D01*
X116592927Y-48743231D01*
X116593623Y-48747113D01*
X116594188Y-48751264D01*
X116594668Y-48755675D01*
X116595341Y-48765358D01*
X116595704Y-48776248D01*
X116595805Y-48788410D01*
X116595724Y-48801351D01*
X116595403Y-48812797D01*
X116594766Y-48822863D01*
X116594276Y-48827402D01*
X116593675Y-48831648D01*
X116592931Y-48835597D01*
X116592046Y-48839242D01*
X116590988Y-48842627D01*
X116589749Y-48845762D01*
X116588339Y-48848656D01*
X116586713Y-48851306D01*
X116584877Y-48853745D01*
X116582807Y-48855972D01*
X116580496Y-48858011D01*
X116577936Y-48859870D01*
X116575103Y-48861558D01*
X116572006Y-48863088D01*
X116568593Y-48864482D01*
X116564891Y-48865744D01*
X116560847Y-48866896D01*
X116556498Y-48867943D01*
X116546724Y-48869769D01*
X116535458Y-48871342D01*
X116522591Y-48872762D01*
X116508035Y-48874104D01*
X116486837Y-48876334D01*
X116466827Y-48879190D01*
X116447997Y-48882685D01*
X116430300Y-48886809D01*
X116413748Y-48891611D01*
X116398287Y-48897072D01*
X116383917Y-48903225D01*
X116370614Y-48910072D01*
X116358340Y-48917624D01*
X116347107Y-48925894D01*
X116336863Y-48934907D01*
X116327596Y-48944653D01*
X116319291Y-48955153D01*
X116311930Y-48966428D01*
X116305463Y-48978491D01*
X116299890Y-48991341D01*
X116297600Y-48998675D01*
X116295388Y-49008624D01*
X116293239Y-49021015D01*
X116291175Y-49035672D01*
X116287363Y-49071091D01*
X116284038Y-49113512D01*
X116281291Y-49161567D01*
X116279217Y-49213884D01*
X116277905Y-49269080D01*
X116277436Y-49325803D01*
X116277436Y-49602265D01*
X116198831Y-49602265D01*
X116182723Y-49601953D01*
X116167075Y-49601043D01*
X116152268Y-49599624D01*
X116138694Y-49597728D01*
X116132499Y-49596633D01*
X116126756Y-49595434D01*
X116121506Y-49594167D01*
X116116814Y-49592814D01*
X116112713Y-49591408D01*
X116109270Y-49589929D01*
X116106514Y-49588395D01*
X116104515Y-49586821D01*
X116103701Y-49585498D01*
X116102900Y-49583118D01*
X116101334Y-49575341D01*
X116099852Y-49563708D01*
X116098406Y-49548438D01*
X116095731Y-49507833D01*
X116093401Y-49455291D01*
X116091487Y-49392581D01*
X116090022Y-49321421D01*
X116089103Y-49243566D01*
X116088787Y-49160761D01*
X116089068Y-49041652D01*
X116090101Y-48947163D01*
X116092132Y-48874423D01*
X116095413Y-48820563D01*
X116097607Y-48799806D01*
X116100194Y-48782676D01*
X116103220Y-48768839D01*
X116106729Y-48757889D01*
X116110733Y-48749505D01*
X116115276Y-48743320D01*
X116120376Y-48738978D01*
X116126083Y-48736089D01*
X116139419Y-48731477D01*
X116152430Y-48727778D01*
X116165073Y-48725016D01*
X116177264Y-48723153D01*
X116188978Y-48722181D01*
X116200151Y-48722072D01*
X116210724Y-48722854D01*
X116220645Y-48724496D01*
X116229870Y-48726975D01*
X116234195Y-48728541D01*
X116238331Y-48730293D01*
X116242273Y-48732260D01*
X116245996Y-48734448D01*
X116249503Y-48736816D01*
X116252792Y-48739398D01*
X116255841Y-48742173D01*
X116258670Y-48745152D01*
X116261251Y-48748325D01*
X116263579Y-48751697D01*
X116265654Y-48755264D01*
X116267460Y-48759023D01*
X116269015Y-48762964D01*
X116270282Y-48767117D01*
X116272364Y-48774696D01*
X116274425Y-48781235D01*
X116275479Y-48784112D01*
X116276566Y-48786718D01*
X116277723Y-48789053D01*
X116278942Y-48791122D01*
X116280231Y-48792921D01*
X116281663Y-48794435D01*
X116283194Y-48795678D01*
X116284856Y-48796638D01*
X116286686Y-48797318D01*
X116288660Y-48797707D01*
X116290841Y-48797823D01*
X116293229Y-48797635D01*
X116295825Y-48797167D01*
X116298665Y-48796404D01*
X116301741Y-48795350D01*
X116305090Y-48793993D01*
X116308733Y-48792336D01*
X116312672Y-48790381D01*
X116316919Y-48788125D01*
X116321503Y-48785560D01*
X116331750Y-48779502D01*
X116343495Y-48772209D01*
X116356920Y-48763636D01*
X116372123Y-48753798D01*
X116382761Y-48747106D01*
X116393396Y-48740836D01*
X116404019Y-48735011D01*
X116414595Y-48729636D01*
X116425100Y-48724720D01*
X116435501Y-48720256D01*
X116445789Y-48716274D01*
X116455923Y-48712774D01*
X116465909Y-48709739D01*
X116475679Y-48707215D01*
X116485236Y-48705194D01*
X116494552Y-48703683D01*
X116503598Y-48702695D01*
X116512358Y-48702229D01*
X116520799Y-48702308D01*
G37*
G36*
X113791515Y-48357540D02*
G01*
X113809317Y-48358660D01*
X113827022Y-48360716D01*
X113844576Y-48363688D01*
X113861984Y-48367568D01*
X113879127Y-48372354D01*
X113896030Y-48378025D01*
X113912630Y-48384574D01*
X113928893Y-48391996D01*
X113944788Y-48400281D01*
X113960234Y-48409404D01*
X113975231Y-48419363D01*
X113989728Y-48430160D01*
X114003667Y-48441780D01*
X114017046Y-48454195D01*
X114029780Y-48467422D01*
X114041855Y-48481426D01*
X114053227Y-48496210D01*
X114063853Y-48511767D01*
X114073709Y-48528078D01*
X114082714Y-48545130D01*
X114094819Y-48571767D01*
X114105348Y-48599123D01*
X114114296Y-48627132D01*
X114121705Y-48655659D01*
X114127614Y-48684625D01*
X114132081Y-48713924D01*
X114136731Y-48773102D01*
X114135923Y-48832379D01*
X114129940Y-48890938D01*
X114119059Y-48947972D01*
X114103532Y-49002658D01*
X114083636Y-49054214D01*
X114059659Y-49101780D01*
X114046208Y-49123827D01*
X114031852Y-49144582D01*
X114016581Y-49163938D01*
X114000474Y-49181787D01*
X113983540Y-49198033D01*
X113965834Y-49212581D01*
X113947360Y-49225326D01*
X113928173Y-49236162D01*
X113908297Y-49244989D01*
X113887770Y-49251704D01*
X113866631Y-49256212D01*
X113844907Y-49258405D01*
X113820531Y-49259346D01*
X113797756Y-49259851D01*
X113776476Y-49259876D01*
X113756546Y-49259411D01*
X113737832Y-49258426D01*
X113720174Y-49256881D01*
X113703461Y-49254775D01*
X113687540Y-49252068D01*
X113672282Y-49248712D01*
X113657546Y-49244723D01*
X113643183Y-49240036D01*
X113629083Y-49234646D01*
X113615104Y-49228527D01*
X113601059Y-49221638D01*
X113586861Y-49213956D01*
X113572373Y-49205455D01*
X113496746Y-49159601D01*
X113489827Y-49340400D01*
X113482921Y-49521184D01*
X113407078Y-49528398D01*
X113395877Y-49529337D01*
X113385712Y-49529920D01*
X113376526Y-49530112D01*
X113368252Y-49529881D01*
X113360851Y-49529198D01*
X113357446Y-49528674D01*
X113354225Y-49528017D01*
X113351197Y-49527229D01*
X113348334Y-49526307D01*
X113345652Y-49525261D01*
X113343127Y-49524054D01*
X113340747Y-49522703D01*
X113338514Y-49521204D01*
X113336417Y-49519549D01*
X113334447Y-49517741D01*
X113332590Y-49515760D01*
X113330848Y-49513619D01*
X113329211Y-49511299D01*
X113327668Y-49508807D01*
X113324846Y-49503280D01*
X113322325Y-49496998D01*
X113320027Y-49489945D01*
X113317892Y-49482068D01*
X113316568Y-49473897D01*
X113315342Y-49460676D01*
X113313224Y-49420150D01*
X113311570Y-49362867D01*
X113310407Y-49291157D01*
X113309759Y-49207400D01*
X113309664Y-49113937D01*
X113311182Y-48907345D01*
X113312625Y-48795190D01*
X113506372Y-48795190D01*
X113506808Y-48824286D01*
X113508555Y-48853145D01*
X113511595Y-48881424D01*
X113515926Y-48908680D01*
X113521521Y-48934550D01*
X113528373Y-48958621D01*
X113536480Y-48980517D01*
X113545814Y-48999836D01*
X113550921Y-49008411D01*
X113556333Y-49016191D01*
X113565714Y-49028129D01*
X113575276Y-49039403D01*
X113585022Y-49050000D01*
X113594919Y-49059905D01*
X113604975Y-49069135D01*
X113615164Y-49077686D01*
X113625481Y-49085566D01*
X113635894Y-49092751D01*
X113646415Y-49099248D01*
X113657034Y-49105056D01*
X113667723Y-49110180D01*
X113678478Y-49114611D01*
X113689274Y-49118346D01*
X113700127Y-49121409D01*
X113711007Y-49123752D01*
X113721880Y-49125414D01*
X113732778Y-49126371D01*
X113743657Y-49126625D01*
X113754511Y-49126185D01*
X113765347Y-49125049D01*
X113776123Y-49123196D01*
X113786842Y-49120646D01*
X113797484Y-49117387D01*
X113808067Y-49113416D01*
X113818539Y-49108758D01*
X113828910Y-49103367D01*
X113839158Y-49097266D01*
X113849276Y-49090461D01*
X113859260Y-49082924D01*
X113869088Y-49074685D01*
X113878735Y-49065721D01*
X113888201Y-49056047D01*
X113897007Y-49045888D01*
X113905249Y-49034877D01*
X113912950Y-49023055D01*
X113920105Y-49010469D01*
X113926697Y-48997200D01*
X113932750Y-48983294D01*
X113943212Y-48953758D01*
X113951455Y-48922301D01*
X113957483Y-48889387D01*
X113961298Y-48855434D01*
X113962888Y-48820892D01*
X113962243Y-48786178D01*
X113959348Y-48751752D01*
X113954216Y-48718047D01*
X113946841Y-48685485D01*
X113937206Y-48654524D01*
X113931532Y-48639770D01*
X113925310Y-48625601D01*
X113918509Y-48612035D01*
X113911150Y-48599135D01*
X113903208Y-48586969D01*
X113894709Y-48575593D01*
X113885683Y-48565061D01*
X113876157Y-48555337D01*
X113866175Y-48546421D01*
X113855763Y-48538323D01*
X113844968Y-48531006D01*
X113833817Y-48524487D01*
X113822358Y-48518753D01*
X113810599Y-48513804D01*
X113798610Y-48509651D01*
X113786422Y-48506247D01*
X113774066Y-48503624D01*
X113761578Y-48501770D01*
X113748992Y-48500674D01*
X113736351Y-48500345D01*
X113723703Y-48500760D01*
X113711053Y-48501923D01*
X113698474Y-48503828D01*
X113685981Y-48506478D01*
X113673610Y-48509856D01*
X113661425Y-48513964D01*
X113649415Y-48518808D01*
X113637658Y-48524361D01*
X113626187Y-48530630D01*
X113615019Y-48537620D01*
X113604202Y-48545314D01*
X113593778Y-48553713D01*
X113583782Y-48562797D01*
X113574227Y-48572598D01*
X113565201Y-48583077D01*
X113556685Y-48594238D01*
X113548753Y-48606075D01*
X113541440Y-48618598D01*
X113532242Y-48638179D01*
X113524467Y-48660293D01*
X113518105Y-48684553D01*
X113513136Y-48710563D01*
X113509533Y-48737940D01*
X113507279Y-48766281D01*
X113506372Y-48795190D01*
X113312625Y-48795190D01*
X113317843Y-48386147D01*
X113396268Y-48378754D01*
X113407558Y-48377813D01*
X113417838Y-48377217D01*
X113427174Y-48376999D01*
X113435630Y-48377187D01*
X113443238Y-48377780D01*
X113450073Y-48378833D01*
X113456185Y-48380355D01*
X113458986Y-48381308D01*
X113461616Y-48382391D01*
X113464103Y-48383584D01*
X113466447Y-48384928D01*
X113468644Y-48386390D01*
X113470695Y-48388011D01*
X113472635Y-48389761D01*
X113474432Y-48391663D01*
X113476149Y-48393702D01*
X113477741Y-48395903D01*
X113480634Y-48400756D01*
X113483181Y-48406262D01*
X113485438Y-48412437D01*
X113487450Y-48419293D01*
X113490259Y-48429654D01*
X113492862Y-48438633D01*
X113495431Y-48446240D01*
X113496732Y-48449525D01*
X113498070Y-48452467D01*
X113499462Y-48455066D01*
X113500917Y-48457314D01*
X113502465Y-48459222D01*
X113504115Y-48460796D01*
X113505888Y-48462012D01*
X113507804Y-48462900D01*
X113509863Y-48463433D01*
X113512099Y-48463632D01*
X113514529Y-48463473D01*
X113517156Y-48462989D01*
X113520009Y-48462151D01*
X113523097Y-48460981D01*
X113526429Y-48459456D01*
X113530061Y-48457598D01*
X113533960Y-48455406D01*
X113538173Y-48452865D01*
X113547573Y-48446754D01*
X113558408Y-48439275D01*
X113584875Y-48420258D01*
X113600713Y-48409430D01*
X113616929Y-48399658D01*
X113633517Y-48390930D01*
X113650391Y-48383223D01*
X113667537Y-48376551D01*
X113684884Y-48370888D01*
X113702434Y-48366206D01*
X113720131Y-48362532D01*
X113737913Y-48359841D01*
X113755782Y-48358120D01*
X113773664Y-48357347D01*
X113791515Y-48357540D01*
G37*
G36*
X120249927Y-49451840D02*
G01*
X120254219Y-49452060D01*
X120258269Y-49452385D01*
X120262066Y-49452851D01*
X120265645Y-49453461D01*
X120269010Y-49454253D01*
X120272169Y-49455217D01*
X120275119Y-49456387D01*
X120277893Y-49457776D01*
X120280475Y-49459402D01*
X120282891Y-49461280D01*
X120285160Y-49463434D01*
X120287262Y-49465873D01*
X120289216Y-49468618D01*
X120291049Y-49471689D01*
X120292755Y-49475107D01*
X120294353Y-49478883D01*
X120295835Y-49483019D01*
X120297242Y-49487570D01*
X120298553Y-49492532D01*
X120299788Y-49497906D01*
X120300940Y-49503736D01*
X120302066Y-49510026D01*
X120304157Y-49524073D01*
X120306129Y-49540161D01*
X120308068Y-49558467D01*
X120310045Y-49579103D01*
X120321836Y-49706502D01*
X120411579Y-49713755D01*
X120426136Y-49715257D01*
X120439617Y-49717252D01*
X120452045Y-49719728D01*
X120463428Y-49722615D01*
X120473765Y-49725935D01*
X120483058Y-49729592D01*
X120491348Y-49733591D01*
X120498596Y-49737868D01*
X120504841Y-49742420D01*
X120510090Y-49747174D01*
X120514331Y-49752115D01*
X120517588Y-49757191D01*
X120519865Y-49762380D01*
X120521167Y-49767651D01*
X120521494Y-49772960D01*
X120520878Y-49778262D01*
X120519307Y-49783529D01*
X120516786Y-49788728D01*
X120513324Y-49793808D01*
X120508941Y-49798753D01*
X120503653Y-49803503D01*
X120497434Y-49808057D01*
X120490300Y-49812337D01*
X120482284Y-49816351D01*
X120473375Y-49820013D01*
X120463586Y-49823335D01*
X120452912Y-49826244D01*
X120441374Y-49828723D01*
X120428975Y-49830723D01*
X120415726Y-49832226D01*
X120401621Y-49833179D01*
X120386694Y-49833553D01*
X120310045Y-49833884D01*
X120310045Y-50132540D01*
X120310343Y-50240075D01*
X120311038Y-50283636D01*
X120312366Y-50320998D01*
X120314518Y-50352646D01*
X120317748Y-50379058D01*
X120322220Y-50400695D01*
X120324992Y-50409891D01*
X120328150Y-50418063D01*
X120331749Y-50425271D01*
X120335785Y-50431601D01*
X120340280Y-50437074D01*
X120345286Y-50441801D01*
X120350808Y-50445780D01*
X120356870Y-50449112D01*
X120363524Y-50451862D01*
X120370760Y-50454059D01*
X120387153Y-50457065D01*
X120406271Y-50458630D01*
X120453481Y-50459315D01*
X120463599Y-50459424D01*
X120472738Y-50459812D01*
X120480921Y-50460503D01*
X120488189Y-50461538D01*
X120491509Y-50462196D01*
X120494604Y-50462938D01*
X120497506Y-50463804D01*
X120500215Y-50464777D01*
X120502729Y-50465857D01*
X120505059Y-50467065D01*
X120507206Y-50468392D01*
X120509176Y-50469841D01*
X120510994Y-50471429D01*
X120512643Y-50473161D01*
X120514147Y-50475032D01*
X120515495Y-50477052D01*
X120516715Y-50479218D01*
X120517770Y-50481565D01*
X120518715Y-50484049D01*
X120519532Y-50486702D01*
X120520221Y-50489535D01*
X120520812Y-50492541D01*
X120521664Y-50499119D01*
X120522140Y-50506457D01*
X120522294Y-50514595D01*
X120522084Y-50520455D01*
X120521452Y-50526058D01*
X120520408Y-50531389D01*
X120518945Y-50536460D01*
X120517063Y-50541291D01*
X120514746Y-50545833D01*
X120512026Y-50550128D01*
X120508879Y-50554150D01*
X120505293Y-50557924D01*
X120501287Y-50561432D01*
X120496862Y-50564689D01*
X120491987Y-50567668D01*
X120486700Y-50570405D01*
X120480983Y-50572873D01*
X120474825Y-50575084D01*
X120468236Y-50577036D01*
X120461209Y-50578744D01*
X120453750Y-50580185D01*
X120445860Y-50581365D01*
X120437520Y-50582285D01*
X120428748Y-50582952D01*
X120419534Y-50583376D01*
X120409886Y-50583531D01*
X120399790Y-50583426D01*
X120389252Y-50583068D01*
X120378268Y-50582453D01*
X120366832Y-50581592D01*
X120354951Y-50580468D01*
X120342632Y-50579103D01*
X120329857Y-50577486D01*
X120316629Y-50575598D01*
X120302949Y-50573453D01*
X120302949Y-50573483D01*
X120293679Y-50571849D01*
X120284371Y-50569981D01*
X120275096Y-50567911D01*
X120265923Y-50565643D01*
X120248078Y-50560603D01*
X120239543Y-50557871D01*
X120231342Y-50555058D01*
X120223534Y-50552142D01*
X120216181Y-50549176D01*
X120209343Y-50546158D01*
X120203088Y-50543120D01*
X120197468Y-50540091D01*
X120192554Y-50537078D01*
X120188387Y-50534117D01*
X120185038Y-50531215D01*
X120183355Y-50529239D01*
X120181688Y-50526614D01*
X120178432Y-50519440D01*
X120175260Y-50509759D01*
X120172200Y-50497621D01*
X120169259Y-50483027D01*
X120166402Y-50466079D01*
X120163656Y-50446766D01*
X120161046Y-50425155D01*
X120158557Y-50401296D01*
X120156202Y-50375212D01*
X120153959Y-50346946D01*
X120151867Y-50316562D01*
X120148110Y-50249543D01*
X120144966Y-50174507D01*
X120133169Y-49845488D01*
X120068325Y-49838152D01*
X120059286Y-49836994D01*
X120051073Y-49835600D01*
X120043626Y-49833959D01*
X120036949Y-49832029D01*
X120033865Y-49830958D01*
X120030966Y-49829801D01*
X120028226Y-49828553D01*
X120025668Y-49827217D01*
X120023268Y-49825803D01*
X120021032Y-49824272D01*
X120018947Y-49822637D01*
X120017012Y-49820908D01*
X120015218Y-49819074D01*
X120013577Y-49817136D01*
X120012082Y-49815065D01*
X120010702Y-49812889D01*
X120009478Y-49810577D01*
X120008375Y-49808144D01*
X120007382Y-49805572D01*
X120006522Y-49802869D01*
X120005784Y-49800052D01*
X120005151Y-49797070D01*
X120004194Y-49790658D01*
X120003642Y-49783652D01*
X120003480Y-49775992D01*
X120003642Y-49768345D01*
X120004194Y-49761319D01*
X120004612Y-49758051D01*
X120005151Y-49754934D01*
X120005784Y-49751951D01*
X120006522Y-49749105D01*
X120007382Y-49746420D01*
X120008375Y-49743853D01*
X120009478Y-49741417D01*
X120010702Y-49739109D01*
X120012082Y-49736919D01*
X120013577Y-49734868D01*
X120015218Y-49732912D01*
X120017003Y-49731080D01*
X120018947Y-49729346D01*
X120021032Y-49727728D01*
X120023268Y-49726199D01*
X120025668Y-49724773D01*
X120028226Y-49723443D01*
X120030966Y-49722194D01*
X120033865Y-49721039D01*
X120036949Y-49719965D01*
X120040194Y-49718953D01*
X120043626Y-49718034D01*
X120051073Y-49716394D01*
X120059286Y-49714995D01*
X120068325Y-49713833D01*
X120078699Y-49712491D01*
X120083483Y-49711721D01*
X120088012Y-49710859D01*
X120092302Y-49709868D01*
X120096361Y-49708768D01*
X120100195Y-49707533D01*
X120103806Y-49706119D01*
X120107233Y-49704532D01*
X120110479Y-49702746D01*
X120113544Y-49700755D01*
X120116458Y-49698526D01*
X120119209Y-49696052D01*
X120121819Y-49693316D01*
X120124305Y-49690306D01*
X120126676Y-49686981D01*
X120128933Y-49683340D01*
X120131108Y-49679378D01*
X120133187Y-49675056D01*
X120135201Y-49670369D01*
X120137155Y-49665296D01*
X120139067Y-49659817D01*
X120140934Y-49653916D01*
X120142793Y-49647590D01*
X120146447Y-49633535D01*
X120150154Y-49617536D01*
X120153982Y-49599437D01*
X120158037Y-49579103D01*
X120165807Y-49541169D01*
X120169443Y-49525363D01*
X120173032Y-49511498D01*
X120176637Y-49499451D01*
X120180337Y-49489100D01*
X120184226Y-49480331D01*
X120188378Y-49473000D01*
X120190555Y-49469853D01*
X120192855Y-49467004D01*
X120195255Y-49464457D01*
X120197771Y-49462200D01*
X120200408Y-49460207D01*
X120203176Y-49458465D01*
X120206107Y-49456979D01*
X120209175Y-49455706D01*
X120215823Y-49453773D01*
X120223221Y-49452538D01*
X120231449Y-49451885D01*
X120240558Y-49451701D01*
X120249927Y-49451840D01*
G37*
G36*
X118985099Y-47011573D02*
G01*
X119014266Y-47014370D01*
X119032525Y-47017264D01*
X119050540Y-47021066D01*
X119068282Y-47025760D01*
X119085713Y-47031310D01*
X119102850Y-47037697D01*
X119119618Y-47044913D01*
X119136045Y-47052901D01*
X119152087Y-47061668D01*
X119167722Y-47071158D01*
X119182928Y-47081356D01*
X119197691Y-47092244D01*
X119211980Y-47103790D01*
X119225782Y-47115980D01*
X119239069Y-47128768D01*
X119251841Y-47142142D01*
X119264049Y-47156073D01*
X119275694Y-47170542D01*
X119286725Y-47185526D01*
X119297153Y-47200981D01*
X119306940Y-47216898D01*
X119316056Y-47233241D01*
X119324494Y-47250003D01*
X119332232Y-47267128D01*
X119339249Y-47284620D01*
X119345517Y-47302430D01*
X119351021Y-47320552D01*
X119355737Y-47338954D01*
X119359645Y-47357620D01*
X119362718Y-47376498D01*
X119364939Y-47395582D01*
X119366293Y-47414840D01*
X119366747Y-47434247D01*
X119366747Y-47516152D01*
X119054283Y-47522622D01*
X118741800Y-47529078D01*
X118746804Y-47598561D01*
X118747742Y-47607108D01*
X118749289Y-47615712D01*
X118751450Y-47624373D01*
X118754207Y-47633048D01*
X118757491Y-47641736D01*
X118761318Y-47650394D01*
X118765644Y-47659012D01*
X118770445Y-47667578D01*
X118775702Y-47676046D01*
X118781387Y-47684406D01*
X118787488Y-47692628D01*
X118793955Y-47700699D01*
X118807939Y-47716303D01*
X118823151Y-47731010D01*
X118839383Y-47744654D01*
X118856442Y-47757061D01*
X118874132Y-47768056D01*
X118883160Y-47772960D01*
X118892256Y-47777440D01*
X118901421Y-47781493D01*
X118910613Y-47785055D01*
X118919823Y-47788145D01*
X118929003Y-47790726D01*
X118938145Y-47792751D01*
X118947238Y-47794240D01*
X118956223Y-47795156D01*
X118965099Y-47795471D01*
X118982553Y-47794952D01*
X118999858Y-47793482D01*
X119016932Y-47791065D01*
X119033660Y-47787791D01*
X119049919Y-47783704D01*
X119065614Y-47778843D01*
X119080633Y-47773252D01*
X119094876Y-47767006D01*
X119108214Y-47760135D01*
X119120557Y-47752719D01*
X119131787Y-47744782D01*
X119141789Y-47736400D01*
X119150461Y-47727600D01*
X119157698Y-47718445D01*
X119160749Y-47713760D01*
X119163388Y-47708990D01*
X119165625Y-47704165D01*
X119167433Y-47699302D01*
X119168453Y-47696337D01*
X119169578Y-47693518D01*
X119170793Y-47690811D01*
X119172148Y-47688226D01*
X119173591Y-47685746D01*
X119175172Y-47683411D01*
X119176868Y-47681174D01*
X119178702Y-47679049D01*
X119180673Y-47677025D01*
X119182768Y-47675123D01*
X119185022Y-47673321D01*
X119187419Y-47671627D01*
X119189964Y-47670030D01*
X119192694Y-47668529D01*
X119195564Y-47667134D01*
X119198612Y-47665841D01*
X119201841Y-47664627D01*
X119205246Y-47663514D01*
X119208820Y-47662486D01*
X119212606Y-47661562D01*
X119216576Y-47660691D01*
X119220741Y-47659937D01*
X119225123Y-47659246D01*
X119229707Y-47658651D01*
X119234499Y-47658117D01*
X119239519Y-47657668D01*
X119244752Y-47657295D01*
X119250222Y-47656998D01*
X119261871Y-47656601D01*
X119274482Y-47656471D01*
X119367699Y-47656471D01*
X119318669Y-47750879D01*
X119310749Y-47765071D01*
X119301991Y-47778759D01*
X119292439Y-47791940D01*
X119282119Y-47804586D01*
X119271078Y-47816701D01*
X119259316Y-47828287D01*
X119246902Y-47839317D01*
X119233832Y-47849781D01*
X119220181Y-47859676D01*
X119205943Y-47868985D01*
X119191170Y-47877696D01*
X119175873Y-47885810D01*
X119160115Y-47893322D01*
X119143904Y-47900206D01*
X119127279Y-47906452D01*
X119110281Y-47912059D01*
X119092940Y-47917034D01*
X119075270Y-47921314D01*
X119057311Y-47924939D01*
X119039109Y-47927897D01*
X119020680Y-47930147D01*
X119002060Y-47931700D01*
X118983287Y-47932546D01*
X118964396Y-47932667D01*
X118945408Y-47932059D01*
X118926355Y-47930711D01*
X118907270Y-47928618D01*
X118888191Y-47925772D01*
X118869153Y-47922153D01*
X118850175Y-47917752D01*
X118831294Y-47912563D01*
X118812552Y-47906559D01*
X118812570Y-47906559D01*
X118791761Y-47898705D01*
X118771760Y-47889663D01*
X118752549Y-47879435D01*
X118734140Y-47868005D01*
X118716535Y-47855389D01*
X118699725Y-47841587D01*
X118683721Y-47826579D01*
X118668508Y-47810402D01*
X118654096Y-47793015D01*
X118640486Y-47774453D01*
X118627683Y-47754692D01*
X118615652Y-47733750D01*
X118604440Y-47711601D01*
X118594015Y-47688273D01*
X118584392Y-47663740D01*
X118575570Y-47638027D01*
X118566497Y-47606662D01*
X118559384Y-47575394D01*
X118554148Y-47544270D01*
X118550770Y-47513397D01*
X118549176Y-47482805D01*
X118549359Y-47452586D01*
X118551220Y-47422802D01*
X118554765Y-47393499D01*
X118559908Y-47364770D01*
X118561202Y-47359341D01*
X118739185Y-47359341D01*
X118739230Y-47363804D01*
X118739517Y-47367954D01*
X118740028Y-47371721D01*
X118740785Y-47375092D01*
X118741781Y-47378006D01*
X118743027Y-47380456D01*
X118743994Y-47381542D01*
X118745498Y-47382612D01*
X118747499Y-47383679D01*
X118750020Y-47384720D01*
X118756514Y-47386744D01*
X118764853Y-47388697D01*
X118774930Y-47390559D01*
X118786620Y-47392302D01*
X118799827Y-47393925D01*
X118814410Y-47395436D01*
X118830252Y-47396816D01*
X118847269Y-47398030D01*
X118865324Y-47399098D01*
X118884310Y-47400000D01*
X118924612Y-47401252D01*
X118945693Y-47401566D01*
X118967243Y-47401675D01*
X119035989Y-47401522D01*
X119087892Y-47400682D01*
X119108261Y-47399781D01*
X119125322Y-47398479D01*
X119139330Y-47396679D01*
X119150625Y-47394308D01*
X119159477Y-47391265D01*
X119166187Y-47387499D01*
X119168835Y-47385312D01*
X119171059Y-47382925D01*
X119174384Y-47377449D01*
X119176445Y-47371010D01*
X119177554Y-47363500D01*
X119178087Y-47345060D01*
X119177809Y-47338954D01*
X119176935Y-47332365D01*
X119175547Y-47325355D01*
X119173636Y-47317980D01*
X119171249Y-47310312D01*
X119168410Y-47302411D01*
X119165164Y-47294324D01*
X119161509Y-47286139D01*
X119157495Y-47277886D01*
X119153145Y-47269661D01*
X119148477Y-47261489D01*
X119143556Y-47253465D01*
X119138370Y-47245647D01*
X119132976Y-47238069D01*
X119127375Y-47230833D01*
X119121632Y-47223959D01*
X119111587Y-47213314D01*
X119100986Y-47203596D01*
X119089876Y-47194833D01*
X119078300Y-47187009D01*
X119066299Y-47180092D01*
X119053932Y-47174079D01*
X119041257Y-47168990D01*
X119028265Y-47164774D01*
X119015051Y-47161459D01*
X119001653Y-47158990D01*
X118988097Y-47157406D01*
X118974442Y-47156652D01*
X118960741Y-47156752D01*
X118947029Y-47157679D01*
X118933349Y-47159425D01*
X118919767Y-47161976D01*
X118906296Y-47165355D01*
X118893007Y-47169504D01*
X118879939Y-47174433D01*
X118867133Y-47180154D01*
X118854633Y-47186618D01*
X118842493Y-47193830D01*
X118830757Y-47201796D01*
X118819466Y-47210494D01*
X118808674Y-47219905D01*
X118798408Y-47230027D01*
X118788737Y-47240852D01*
X118779694Y-47252375D01*
X118771325Y-47264581D01*
X118763681Y-47277449D01*
X118756798Y-47290982D01*
X118750737Y-47305172D01*
X118748653Y-47310782D01*
X118746772Y-47316469D01*
X118745087Y-47322160D01*
X118743615Y-47327835D01*
X118742336Y-47333460D01*
X118741270Y-47338977D01*
X118740421Y-47344365D01*
X118739788Y-47349582D01*
X118739369Y-47354587D01*
X118739185Y-47359341D01*
X118561202Y-47359341D01*
X118566620Y-47336660D01*
X118574846Y-47309278D01*
X118584536Y-47282650D01*
X118595663Y-47256849D01*
X118608146Y-47231941D01*
X118621957Y-47208027D01*
X118637063Y-47185134D01*
X118653393Y-47163337D01*
X118670920Y-47142712D01*
X118689569Y-47123329D01*
X118709331Y-47105259D01*
X118730115Y-47088526D01*
X118751912Y-47073251D01*
X118774654Y-47059492D01*
X118798296Y-47047294D01*
X118822793Y-47036735D01*
X118848101Y-47027884D01*
X118874165Y-47020810D01*
X118900935Y-47015567D01*
X118928393Y-47012243D01*
X118956459Y-47010888D01*
X118985099Y-47011573D01*
G37*
G36*
X121593776Y-50371118D02*
G01*
X121613352Y-50372514D01*
X121632971Y-50374676D01*
X121652569Y-50377609D01*
X121672111Y-50381325D01*
X121691577Y-50385844D01*
X121710905Y-50391170D01*
X121730065Y-50397312D01*
X121749002Y-50404303D01*
X121775172Y-50415212D01*
X121787155Y-50420779D01*
X121798452Y-50426538D01*
X121809048Y-50432528D01*
X121818993Y-50438812D01*
X121828299Y-50445462D01*
X121836985Y-50452551D01*
X121845066Y-50460132D01*
X121852580Y-50468280D01*
X121859529Y-50477041D01*
X121865951Y-50486502D01*
X121871844Y-50496723D01*
X121877254Y-50507767D01*
X121882175Y-50519690D01*
X121886664Y-50532568D01*
X121890705Y-50546485D01*
X121894336Y-50561451D01*
X121897576Y-50577592D01*
X121900459Y-50594929D01*
X121902983Y-50613555D01*
X121905179Y-50633527D01*
X121907064Y-50654892D01*
X121908680Y-50677759D01*
X121911108Y-50728133D01*
X121912625Y-50785199D01*
X121913432Y-50849470D01*
X121913659Y-50921467D01*
X121913659Y-51270077D01*
X121842902Y-51270077D01*
X121833039Y-51269951D01*
X121824073Y-51269565D01*
X121815947Y-51268895D01*
X121808638Y-51267916D01*
X121802112Y-51266606D01*
X121796346Y-51264924D01*
X121793722Y-51263938D01*
X121791272Y-51262880D01*
X121789000Y-51261710D01*
X121786904Y-51260421D01*
X121784955Y-51259053D01*
X121783162Y-51257558D01*
X121781527Y-51255955D01*
X121780034Y-51254257D01*
X121778696Y-51252421D01*
X121777472Y-51250475D01*
X121776422Y-51248389D01*
X121775481Y-51246191D01*
X121774659Y-51243866D01*
X121773967Y-51241406D01*
X121772938Y-51236093D01*
X121772349Y-51230210D01*
X121772157Y-51223750D01*
X121772095Y-51213459D01*
X121771805Y-51204548D01*
X121771522Y-51200630D01*
X121771134Y-51197066D01*
X121770619Y-51193852D01*
X121769963Y-51191007D01*
X121769138Y-51188510D01*
X121768124Y-51186379D01*
X121766919Y-51184625D01*
X121765500Y-51183248D01*
X121763833Y-51182212D01*
X121761916Y-51181550D01*
X121759739Y-51181271D01*
X121757265Y-51181364D01*
X121754490Y-51181831D01*
X121751372Y-51182671D01*
X121747931Y-51183910D01*
X121744129Y-51185514D01*
X121739937Y-51187517D01*
X121735345Y-51189890D01*
X121730361Y-51192669D01*
X121724920Y-51195818D01*
X121712702Y-51203306D01*
X121698531Y-51212382D01*
X121663796Y-51235335D01*
X121644792Y-51247045D01*
X121624976Y-51257424D01*
X121604443Y-51266465D01*
X121583255Y-51274152D01*
X121561521Y-51280490D01*
X121539290Y-51285474D01*
X121516668Y-51289083D01*
X121493705Y-51291329D01*
X121470508Y-51292198D01*
X121447140Y-51291691D01*
X121423681Y-51289795D01*
X121400232Y-51286511D01*
X121376846Y-51281813D01*
X121353606Y-51275743D01*
X121330620Y-51268250D01*
X121307931Y-51259354D01*
X121300554Y-51255975D01*
X121293243Y-51252214D01*
X121286014Y-51248070D01*
X121278851Y-51243569D01*
X121271803Y-51238710D01*
X121264858Y-51233531D01*
X121258041Y-51228021D01*
X121251350Y-51222230D01*
X121238385Y-51209811D01*
X121226101Y-51196423D01*
X121214564Y-51182162D01*
X121203850Y-51167165D01*
X121194076Y-51151599D01*
X121185304Y-51135577D01*
X121177641Y-51119232D01*
X121174252Y-51110987D01*
X121171172Y-51102696D01*
X121168422Y-51094400D01*
X121165990Y-51086095D01*
X121163913Y-51077827D01*
X121162180Y-51069584D01*
X121160815Y-51061399D01*
X121159821Y-51053271D01*
X121159210Y-51045225D01*
X121159018Y-51037306D01*
X121159781Y-51021555D01*
X121161222Y-51011161D01*
X121348030Y-51011161D01*
X121348441Y-51026429D01*
X121349487Y-51040558D01*
X121351221Y-51053624D01*
X121353683Y-51065677D01*
X121355206Y-51071335D01*
X121356912Y-51076758D01*
X121358841Y-51081964D01*
X121360967Y-51086955D01*
X121363310Y-51091725D01*
X121365875Y-51096294D01*
X121368676Y-51100679D01*
X121371697Y-51104854D01*
X121374961Y-51108857D01*
X121378454Y-51112676D01*
X121382198Y-51116333D01*
X121386197Y-51119822D01*
X121390455Y-51123147D01*
X121394974Y-51126338D01*
X121399763Y-51129390D01*
X121404822Y-51132295D01*
X121415784Y-51137731D01*
X121427903Y-51142727D01*
X121441238Y-51147313D01*
X121455802Y-51151551D01*
X121472486Y-51155356D01*
X121489334Y-51157828D01*
X121506245Y-51159032D01*
X121523172Y-51158946D01*
X121540029Y-51157621D01*
X121556765Y-51155082D01*
X121573296Y-51151344D01*
X121589552Y-51146434D01*
X121605474Y-51140360D01*
X121620993Y-51133190D01*
X121636020Y-51124891D01*
X121650506Y-51115525D01*
X121664363Y-51105105D01*
X121677535Y-51093647D01*
X121689957Y-51081181D01*
X121701553Y-51067738D01*
X121701553Y-51067742D01*
X121706349Y-51061365D01*
X121710990Y-51054353D01*
X121715491Y-51046824D01*
X121719807Y-51038788D01*
X121723918Y-51030369D01*
X121727809Y-51021616D01*
X121731410Y-51012594D01*
X121734767Y-51003376D01*
X121737798Y-50994040D01*
X121740515Y-50984644D01*
X121742876Y-50975272D01*
X121744858Y-50965981D01*
X121746452Y-50956847D01*
X121747620Y-50947935D01*
X121748332Y-50939321D01*
X121748579Y-50931079D01*
X121748579Y-50853120D01*
X121610262Y-50853120D01*
X121580027Y-50853808D01*
X121551438Y-50855835D01*
X121524530Y-50859193D01*
X121499360Y-50863826D01*
X121475960Y-50869751D01*
X121454391Y-50876912D01*
X121434661Y-50885292D01*
X121416841Y-50894866D01*
X121400976Y-50905591D01*
X121393784Y-50911391D01*
X121387094Y-50917456D01*
X121380918Y-50923815D01*
X121375248Y-50930449D01*
X121370097Y-50937347D01*
X121365483Y-50944517D01*
X121361389Y-50951952D01*
X121357830Y-50959655D01*
X121354815Y-50967608D01*
X121352340Y-50975824D01*
X121350438Y-50984298D01*
X121349065Y-50992999D01*
X121348267Y-51001957D01*
X121348030Y-51011161D01*
X121161222Y-51011161D01*
X121162037Y-51005226D01*
X121165685Y-50988475D01*
X121170652Y-50971437D01*
X121176842Y-50954283D01*
X121184157Y-50937139D01*
X121192517Y-50920151D01*
X121201855Y-50903476D01*
X121212035Y-50887263D01*
X121223008Y-50871644D01*
X121234688Y-50856796D01*
X121246964Y-50842838D01*
X121259777Y-50829913D01*
X121273021Y-50818207D01*
X121286609Y-50807814D01*
X121300450Y-50798927D01*
X121308729Y-50794583D01*
X121318486Y-50790231D01*
X121329673Y-50785892D01*
X121342146Y-50781591D01*
X121355792Y-50777357D01*
X121370528Y-50773219D01*
X121386241Y-50769195D01*
X121402812Y-50765301D01*
X121420134Y-50761567D01*
X121438117Y-50758027D01*
X121456643Y-50754696D01*
X121475589Y-50751594D01*
X121494865Y-50748774D01*
X121514364Y-50746202D01*
X121533970Y-50743955D01*
X121553601Y-50742029D01*
X121607585Y-50736895D01*
X121650158Y-50731876D01*
X121667590Y-50729276D01*
X121682679Y-50726525D01*
X121695612Y-50723569D01*
X121706559Y-50720344D01*
X121715701Y-50716804D01*
X121723208Y-50712877D01*
X121729258Y-50708510D01*
X121734023Y-50703656D01*
X121737682Y-50698229D01*
X121740392Y-50692196D01*
X121742359Y-50685488D01*
X121743727Y-50678042D01*
X121744175Y-50672857D01*
X121744106Y-50667189D01*
X121743527Y-50661088D01*
X121742490Y-50654608D01*
X121740978Y-50647799D01*
X121739049Y-50640742D01*
X121736703Y-50633473D01*
X121733966Y-50626047D01*
X121730863Y-50618528D01*
X121727429Y-50610974D01*
X121723650Y-50603436D01*
X121719581Y-50595971D01*
X121715229Y-50588644D01*
X121710637Y-50581496D01*
X121705792Y-50574609D01*
X121700742Y-50568016D01*
X121693922Y-50559928D01*
X121686827Y-50552393D01*
X121679471Y-50545394D01*
X121671881Y-50538923D01*
X121664048Y-50533001D01*
X121656012Y-50527610D01*
X121647763Y-50522759D01*
X121639327Y-50518455D01*
X121630719Y-50514660D01*
X121621935Y-50511429D01*
X121613014Y-50508726D01*
X121603956Y-50506557D01*
X121594763Y-50504933D01*
X121585467Y-50503823D01*
X121576096Y-50503266D01*
X121566613Y-50503231D01*
X121557072Y-50503731D01*
X121547476Y-50504778D01*
X121537841Y-50506348D01*
X121528167Y-50508455D01*
X121518485Y-50511085D01*
X121508801Y-50514258D01*
X121499130Y-50517965D01*
X121489480Y-50522188D01*
X121479867Y-50526965D01*
X121470299Y-50532248D01*
X121460819Y-50538071D01*
X121451411Y-50544437D01*
X121442077Y-50551325D01*
X121432856Y-50558734D01*
X121423770Y-50566686D01*
X121414801Y-50575157D01*
X121406087Y-50583435D01*
X121397342Y-50591209D01*
X121388577Y-50598479D01*
X121379769Y-50605224D01*
X121370955Y-50611447D01*
X121362138Y-50617140D01*
X121353316Y-50622328D01*
X121344517Y-50626979D01*
X121335710Y-50631089D01*
X121326934Y-50634665D01*
X121318186Y-50637696D01*
X121309477Y-50640186D01*
X121300800Y-50642134D01*
X121292182Y-50643532D01*
X121283613Y-50644371D01*
X121275115Y-50644647D01*
X121248824Y-50644479D01*
X121238368Y-50644017D01*
X121233806Y-50643620D01*
X121229644Y-50643099D01*
X121225917Y-50642412D01*
X121222593Y-50641567D01*
X121219668Y-50640510D01*
X121217151Y-50639260D01*
X121215028Y-50637762D01*
X121213296Y-50636019D01*
X121211933Y-50633995D01*
X121210943Y-50631690D01*
X121210317Y-50629068D01*
X121210067Y-50626121D01*
X121210159Y-50622817D01*
X121210594Y-50619138D01*
X121211382Y-50615072D01*
X121212494Y-50610597D01*
X121213947Y-50605681D01*
X121215715Y-50600322D01*
X121220181Y-50588186D01*
X121225870Y-50574023D01*
X121240660Y-50538923D01*
X121247124Y-50525220D01*
X121254599Y-50512022D01*
X121263068Y-50499332D01*
X121272452Y-50487174D01*
X121282737Y-50475555D01*
X121293883Y-50464465D01*
X121305840Y-50453955D01*
X121318579Y-50444002D01*
X121332035Y-50434633D01*
X121346179Y-50425854D01*
X121360989Y-50417687D01*
X121376396Y-50410117D01*
X121392366Y-50403176D01*
X121408875Y-50396873D01*
X121425860Y-50391214D01*
X121443288Y-50386197D01*
X121461128Y-50381875D01*
X121479323Y-50378209D01*
X121497828Y-50375240D01*
X121516622Y-50372971D01*
X121535665Y-50371412D01*
X121554891Y-50370579D01*
X121574282Y-50370480D01*
X121593776Y-50371118D01*
G37*
G36*
X122941015Y-48867711D02*
G01*
X122967171Y-48870815D01*
X122992710Y-48875579D01*
X123017526Y-48881985D01*
X123041465Y-48890025D01*
X123064419Y-48899654D01*
X123086263Y-48910884D01*
X123106849Y-48923684D01*
X123126061Y-48938009D01*
X123143771Y-48953864D01*
X123151672Y-48961898D01*
X123159095Y-48969992D01*
X123166029Y-48978133D01*
X123172471Y-48986294D01*
X123178455Y-48994450D01*
X123183940Y-49002595D01*
X123188951Y-49010709D01*
X123193461Y-49018749D01*
X123197489Y-49026707D01*
X123201048Y-49034566D01*
X123204095Y-49042300D01*
X123206656Y-49049904D01*
X123208749Y-49057314D01*
X123210316Y-49064557D01*
X123211411Y-49071587D01*
X123212007Y-49078389D01*
X123212103Y-49084934D01*
X123211722Y-49091218D01*
X123210816Y-49097208D01*
X123209420Y-49102875D01*
X123207526Y-49108224D01*
X123205131Y-49113208D01*
X123202239Y-49117830D01*
X123198855Y-49122042D01*
X123194943Y-49125840D01*
X123190527Y-49129204D01*
X123185614Y-49132096D01*
X123180192Y-49134524D01*
X123174275Y-49136444D01*
X123167835Y-49137830D01*
X123160876Y-49138690D01*
X123153414Y-49138982D01*
X123143738Y-49138809D01*
X123134739Y-49138231D01*
X123130459Y-49137764D01*
X123126279Y-49137162D01*
X123122197Y-49136404D01*
X123118204Y-49135491D01*
X123114270Y-49134401D01*
X123110394Y-49133143D01*
X123106550Y-49131680D01*
X123102715Y-49130024D01*
X123098886Y-49128128D01*
X123095048Y-49126020D01*
X123091163Y-49123675D01*
X123087216Y-49121064D01*
X123083209Y-49118191D01*
X123079119Y-49115045D01*
X123074934Y-49111615D01*
X123070620Y-49107886D01*
X123061562Y-49099473D01*
X123051826Y-49089736D01*
X123041291Y-49078552D01*
X123029800Y-49065866D01*
X123017218Y-49051562D01*
X123003408Y-49035548D01*
X122999021Y-49030903D01*
X122994095Y-49026598D01*
X122988681Y-49022632D01*
X122982805Y-49018993D01*
X122976493Y-49015693D01*
X122969776Y-49012709D01*
X122962678Y-49010065D01*
X122955265Y-49007741D01*
X122947550Y-49005752D01*
X122939563Y-49004086D01*
X122922926Y-49001708D01*
X122905606Y-49000618D01*
X122887868Y-49000774D01*
X122869979Y-49002199D01*
X122852200Y-49004868D01*
X122834804Y-49008766D01*
X122818045Y-49013889D01*
X122809986Y-49016891D01*
X122802178Y-49020212D01*
X122794660Y-49023826D01*
X122787487Y-49027728D01*
X122780639Y-49031940D01*
X122774211Y-49036444D01*
X122768180Y-49041243D01*
X122762625Y-49046322D01*
X122754537Y-49054571D01*
X122747288Y-49062628D01*
X122740862Y-49070508D01*
X122735306Y-49078202D01*
X122730582Y-49085730D01*
X122726734Y-49093090D01*
X122723741Y-49100288D01*
X122721639Y-49107358D01*
X122720395Y-49114276D01*
X122720066Y-49121064D01*
X122720611Y-49127721D01*
X122722077Y-49134268D01*
X122724443Y-49140711D01*
X122727722Y-49147037D01*
X122731928Y-49153279D01*
X122737049Y-49159434D01*
X122743120Y-49165502D01*
X122750133Y-49171505D01*
X122758107Y-49177434D01*
X122767018Y-49183326D01*
X122776904Y-49189152D01*
X122787752Y-49194940D01*
X122799602Y-49200695D01*
X122812427Y-49206429D01*
X122826230Y-49212137D01*
X122841049Y-49217835D01*
X122856860Y-49223532D01*
X122873689Y-49229228D01*
X122910412Y-49240667D01*
X122951284Y-49252208D01*
X122994226Y-49264510D01*
X123032892Y-49277041D01*
X123050655Y-49283398D01*
X123067392Y-49289835D01*
X123083099Y-49296357D01*
X123097827Y-49302965D01*
X123111552Y-49309669D01*
X123124320Y-49316477D01*
X123136119Y-49323389D01*
X123146978Y-49330418D01*
X123156891Y-49337563D01*
X123165903Y-49344830D01*
X123173997Y-49352239D01*
X123181214Y-49359784D01*
X123186632Y-49366182D01*
X123191757Y-49372802D01*
X123196581Y-49379645D01*
X123201124Y-49386708D01*
X123205355Y-49393959D01*
X123209304Y-49401413D01*
X123216280Y-49416838D01*
X123222066Y-49432873D01*
X123226640Y-49449462D01*
X123229982Y-49466501D01*
X123232117Y-49483883D01*
X123233006Y-49501554D01*
X123232665Y-49519403D01*
X123231074Y-49537352D01*
X123228229Y-49555301D01*
X123224106Y-49573179D01*
X123218737Y-49590887D01*
X123212061Y-49608322D01*
X123204110Y-49625426D01*
X123197784Y-49636689D01*
X123190463Y-49647540D01*
X123182212Y-49657943D01*
X123173075Y-49667900D01*
X123163085Y-49677418D01*
X123152261Y-49686471D01*
X123140676Y-49695045D01*
X123128355Y-49703151D01*
X123115322Y-49710779D01*
X123101646Y-49717897D01*
X123087366Y-49724515D01*
X123072488Y-49730614D01*
X123057095Y-49736201D01*
X123041185Y-49741262D01*
X123024820Y-49745776D01*
X123008047Y-49749754D01*
X122990894Y-49753176D01*
X122973406Y-49756015D01*
X122955621Y-49758300D01*
X122937571Y-49759986D01*
X122919307Y-49761099D01*
X122900874Y-49761600D01*
X122882289Y-49761498D01*
X122863611Y-49760787D01*
X122844871Y-49759436D01*
X122826125Y-49757463D01*
X122807398Y-49754851D01*
X122788720Y-49751580D01*
X122770154Y-49747645D01*
X122751736Y-49743039D01*
X122733488Y-49737773D01*
X122715460Y-49731804D01*
X122707840Y-49728872D01*
X122700087Y-49725420D01*
X122684263Y-49717058D01*
X122668191Y-49706929D01*
X122652057Y-49695252D01*
X122636079Y-49682279D01*
X122620425Y-49668217D01*
X122605327Y-49653293D01*
X122590959Y-49637740D01*
X122577565Y-49621792D01*
X122565288Y-49605653D01*
X122554354Y-49589576D01*
X122544967Y-49573749D01*
X122537313Y-49558433D01*
X122534201Y-49551042D01*
X122531615Y-49543854D01*
X122529548Y-49536909D01*
X122528031Y-49530222D01*
X122527109Y-49523840D01*
X122526795Y-49517768D01*
X122527198Y-49512116D01*
X122528358Y-49506991D01*
X122530265Y-49502367D01*
X122532881Y-49498251D01*
X122536129Y-49494658D01*
X122540009Y-49491544D01*
X122544477Y-49488908D01*
X122549488Y-49486771D01*
X122555007Y-49485087D01*
X122560986Y-49483874D01*
X122567409Y-49483106D01*
X122574222Y-49482804D01*
X122581381Y-49482927D01*
X122588865Y-49483485D01*
X122596637Y-49484488D01*
X122604642Y-49485882D01*
X122612871Y-49487693D01*
X122621255Y-49489913D01*
X122629759Y-49492532D01*
X122638370Y-49495535D01*
X122647020Y-49498918D01*
X122655705Y-49502675D01*
X122664361Y-49506785D01*
X122672944Y-49511272D01*
X122681451Y-49516099D01*
X122689815Y-49521274D01*
X122698005Y-49526782D01*
X122705986Y-49532616D01*
X122713722Y-49538767D01*
X122721156Y-49545237D01*
X122728276Y-49552016D01*
X122735046Y-49559086D01*
X122745051Y-49569867D01*
X122754563Y-49579555D01*
X122763709Y-49588226D01*
X122772594Y-49595939D01*
X122781351Y-49602708D01*
X122785721Y-49605770D01*
X122790106Y-49608626D01*
X122794497Y-49611279D01*
X122798963Y-49613728D01*
X122803482Y-49615995D01*
X122808060Y-49618065D01*
X122812738Y-49619976D01*
X122817520Y-49621702D01*
X122822422Y-49623265D01*
X122827448Y-49624680D01*
X122832633Y-49625946D01*
X122837996Y-49627065D01*
X122849259Y-49628886D01*
X122861382Y-49630217D01*
X122874459Y-49631098D01*
X122888645Y-49631591D01*
X122904045Y-49631737D01*
X122918282Y-49631591D01*
X122931567Y-49631122D01*
X122943926Y-49630336D01*
X122955428Y-49629178D01*
X122966175Y-49627620D01*
X122976178Y-49625668D01*
X122985531Y-49623295D01*
X122994292Y-49620475D01*
X123002518Y-49617179D01*
X123010266Y-49613383D01*
X123017618Y-49609074D01*
X123024628Y-49604206D01*
X123031362Y-49598797D01*
X123037884Y-49592788D01*
X123044224Y-49586178D01*
X123050491Y-49578933D01*
X123056456Y-49571321D01*
X123061704Y-49563846D01*
X123066225Y-49556504D01*
X123070033Y-49549288D01*
X123073092Y-49542190D01*
X123075424Y-49535201D01*
X123077008Y-49528340D01*
X123077868Y-49521574D01*
X123077972Y-49514913D01*
X123077328Y-49508360D01*
X123075933Y-49501904D01*
X123073788Y-49495535D01*
X123070872Y-49489260D01*
X123067201Y-49483058D01*
X123062750Y-49476949D01*
X123057533Y-49470923D01*
X123051548Y-49464947D01*
X123044772Y-49459058D01*
X123037226Y-49453227D01*
X123028892Y-49447463D01*
X123019764Y-49441755D01*
X123009845Y-49436102D01*
X122999130Y-49430484D01*
X122987613Y-49424915D01*
X122975285Y-49419405D01*
X122962151Y-49413917D01*
X122948218Y-49408466D01*
X122933451Y-49403049D01*
X122917879Y-49397655D01*
X122901480Y-49392279D01*
X122866187Y-49381574D01*
X122832497Y-49371575D01*
X122799092Y-49361150D01*
X122766814Y-49350601D01*
X122736547Y-49340241D01*
X122709171Y-49330374D01*
X122685562Y-49321305D01*
X122666555Y-49313334D01*
X122653083Y-49306780D01*
X122646722Y-49303022D01*
X122640565Y-49298852D01*
X122634591Y-49294288D01*
X122628827Y-49289358D01*
X122623297Y-49284068D01*
X122617972Y-49278429D01*
X122612872Y-49272489D01*
X122608008Y-49266220D01*
X122603363Y-49259684D01*
X122598972Y-49252860D01*
X122594812Y-49245785D01*
X122590924Y-49238472D01*
X122587284Y-49230932D01*
X122583907Y-49223191D01*
X122580806Y-49215265D01*
X122577976Y-49207174D01*
X122575423Y-49198911D01*
X122573157Y-49190522D01*
X122571182Y-49181999D01*
X122569499Y-49173383D01*
X122568119Y-49164672D01*
X122567048Y-49155897D01*
X122566290Y-49147062D01*
X122565855Y-49138198D01*
X122565717Y-49129309D01*
X122565938Y-49120410D01*
X122566494Y-49111526D01*
X122567364Y-49102677D01*
X122568610Y-49093866D01*
X122570192Y-49085121D01*
X122572118Y-49076452D01*
X122574432Y-49067891D01*
X122579941Y-49049857D01*
X122585608Y-49033377D01*
X122591518Y-49018332D01*
X122597818Y-49004579D01*
X122601144Y-48998157D01*
X122604631Y-48992015D01*
X122608287Y-48986124D01*
X122612121Y-48980481D01*
X122616134Y-48975056D01*
X122620368Y-48969863D01*
X122624843Y-48964856D01*
X122629541Y-48960030D01*
X122634524Y-48955363D01*
X122639777Y-48950860D01*
X122645317Y-48946474D01*
X122651168Y-48942210D01*
X122663884Y-48933966D01*
X122678028Y-48925990D01*
X122693761Y-48918154D01*
X122711188Y-48910331D01*
X122730456Y-48902379D01*
X122751700Y-48894194D01*
X122778516Y-48885114D01*
X122805635Y-48877827D01*
X122832889Y-48872324D01*
X122860197Y-48868579D01*
X122887403Y-48866571D01*
X122914390Y-48866287D01*
X122941015Y-48867711D01*
G37*
D11*
X35249241Y-53435170D02*
X36163527Y-53435170D01*
X37363526Y-53892312D02*
X36677812Y-53892312D01*
X37020669Y-53892312D02*
X37020669Y-52692312D01*
X37020669Y-52692312D02*
X36906383Y-52863741D01*
X36906383Y-52863741D02*
X36792098Y-52978027D01*
X36792098Y-52978027D02*
X36677812Y-53035170D01*
X37820669Y-52806598D02*
X37877812Y-52749455D01*
X37877812Y-52749455D02*
X37992098Y-52692312D01*
X37992098Y-52692312D02*
X38277812Y-52692312D01*
X38277812Y-52692312D02*
X38392098Y-52749455D01*
X38392098Y-52749455D02*
X38449240Y-52806598D01*
X38449240Y-52806598D02*
X38506383Y-52920884D01*
X38506383Y-52920884D02*
X38506383Y-53035170D01*
X38506383Y-53035170D02*
X38449240Y-53206598D01*
X38449240Y-53206598D02*
X37763526Y-53892312D01*
X37763526Y-53892312D02*
X38506383Y-53892312D01*
X40449241Y-53092312D02*
X40449241Y-54063741D01*
X40449241Y-54063741D02*
X40392098Y-54178027D01*
X40392098Y-54178027D02*
X40334955Y-54235170D01*
X40334955Y-54235170D02*
X40220669Y-54292312D01*
X40220669Y-54292312D02*
X40049241Y-54292312D01*
X40049241Y-54292312D02*
X39934955Y-54235170D01*
X40449241Y-53835170D02*
X40334955Y-53892312D01*
X40334955Y-53892312D02*
X40106383Y-53892312D01*
X40106383Y-53892312D02*
X39992098Y-53835170D01*
X39992098Y-53835170D02*
X39934955Y-53778027D01*
X39934955Y-53778027D02*
X39877812Y-53663741D01*
X39877812Y-53663741D02*
X39877812Y-53320884D01*
X39877812Y-53320884D02*
X39934955Y-53206598D01*
X39934955Y-53206598D02*
X39992098Y-53149455D01*
X39992098Y-53149455D02*
X40106383Y-53092312D01*
X40106383Y-53092312D02*
X40334955Y-53092312D01*
X40334955Y-53092312D02*
X40449241Y-53149455D01*
X41020669Y-53092312D02*
X41020669Y-53892312D01*
X41020669Y-53206598D02*
X41077812Y-53149455D01*
X41077812Y-53149455D02*
X41192097Y-53092312D01*
X41192097Y-53092312D02*
X41363526Y-53092312D01*
X41363526Y-53092312D02*
X41477812Y-53149455D01*
X41477812Y-53149455D02*
X41534955Y-53263741D01*
X41534955Y-53263741D02*
X41534955Y-53892312D01*
X42620669Y-53892312D02*
X42620669Y-52692312D01*
X42620669Y-53835170D02*
X42506383Y-53892312D01*
X42506383Y-53892312D02*
X42277811Y-53892312D01*
X42277811Y-53892312D02*
X42163526Y-53835170D01*
X42163526Y-53835170D02*
X42106383Y-53778027D01*
X42106383Y-53778027D02*
X42049240Y-53663741D01*
X42049240Y-53663741D02*
X42049240Y-53320884D01*
X42049240Y-53320884D02*
X42106383Y-53206598D01*
X42106383Y-53206598D02*
X42163526Y-53149455D01*
X42163526Y-53149455D02*
X42277811Y-53092312D01*
X42277811Y-53092312D02*
X42506383Y-53092312D01*
X42506383Y-53092312D02*
X42620669Y-53149455D01*
X44677811Y-52692312D02*
X44106383Y-52692312D01*
X44106383Y-52692312D02*
X44049240Y-53263741D01*
X44049240Y-53263741D02*
X44106383Y-53206598D01*
X44106383Y-53206598D02*
X44220669Y-53149455D01*
X44220669Y-53149455D02*
X44506383Y-53149455D01*
X44506383Y-53149455D02*
X44620669Y-53206598D01*
X44620669Y-53206598D02*
X44677811Y-53263741D01*
X44677811Y-53263741D02*
X44734954Y-53378027D01*
X44734954Y-53378027D02*
X44734954Y-53663741D01*
X44734954Y-53663741D02*
X44677811Y-53778027D01*
X44677811Y-53778027D02*
X44620669Y-53835170D01*
X44620669Y-53835170D02*
X44506383Y-53892312D01*
X44506383Y-53892312D02*
X44220669Y-53892312D01*
X44220669Y-53892312D02*
X44106383Y-53835170D01*
X44106383Y-53835170D02*
X44049240Y-53778027D01*
X46792097Y-53892312D02*
X46106383Y-53892312D01*
X46449240Y-53892312D02*
X46449240Y-52692312D01*
X46449240Y-52692312D02*
X46334954Y-52863741D01*
X46334954Y-52863741D02*
X46220669Y-52978027D01*
X46220669Y-52978027D02*
X46106383Y-53035170D01*
X47249240Y-52806598D02*
X47306383Y-52749455D01*
X47306383Y-52749455D02*
X47420669Y-52692312D01*
X47420669Y-52692312D02*
X47706383Y-52692312D01*
X47706383Y-52692312D02*
X47820669Y-52749455D01*
X47820669Y-52749455D02*
X47877811Y-52806598D01*
X47877811Y-52806598D02*
X47934954Y-52920884D01*
X47934954Y-52920884D02*
X47934954Y-53035170D01*
X47934954Y-53035170D02*
X47877811Y-53206598D01*
X47877811Y-53206598D02*
X47192097Y-53892312D01*
X47192097Y-53892312D02*
X47934954Y-53892312D01*
X40690972Y-28971352D02*
X40690972Y-30266590D01*
X40690972Y-30266590D02*
X40614782Y-30418971D01*
X40614782Y-30418971D02*
X40538591Y-30495162D01*
X40538591Y-30495162D02*
X40386210Y-30571352D01*
X40386210Y-30571352D02*
X40157639Y-30571352D01*
X40157639Y-30571352D02*
X40005258Y-30495162D01*
X40690972Y-29961829D02*
X40538591Y-30038019D01*
X40538591Y-30038019D02*
X40233829Y-30038019D01*
X40233829Y-30038019D02*
X40081448Y-29961829D01*
X40081448Y-29961829D02*
X40005258Y-29885638D01*
X40005258Y-29885638D02*
X39929067Y-29733257D01*
X39929067Y-29733257D02*
X39929067Y-29276114D01*
X39929067Y-29276114D02*
X40005258Y-29123733D01*
X40005258Y-29123733D02*
X40081448Y-29047543D01*
X40081448Y-29047543D02*
X40233829Y-28971352D01*
X40233829Y-28971352D02*
X40538591Y-28971352D01*
X40538591Y-28971352D02*
X40690972Y-29047543D01*
X42138591Y-30038019D02*
X42138591Y-29199924D01*
X42138591Y-29199924D02*
X42062401Y-29047543D01*
X42062401Y-29047543D02*
X41910020Y-28971352D01*
X41910020Y-28971352D02*
X41605258Y-28971352D01*
X41605258Y-28971352D02*
X41452877Y-29047543D01*
X42138591Y-29961829D02*
X41986210Y-30038019D01*
X41986210Y-30038019D02*
X41605258Y-30038019D01*
X41605258Y-30038019D02*
X41452877Y-29961829D01*
X41452877Y-29961829D02*
X41376686Y-29809448D01*
X41376686Y-29809448D02*
X41376686Y-29657067D01*
X41376686Y-29657067D02*
X41452877Y-29504686D01*
X41452877Y-29504686D02*
X41605258Y-29428495D01*
X41605258Y-29428495D02*
X41986210Y-29428495D01*
X41986210Y-29428495D02*
X42138591Y-29352305D01*
X42671924Y-28971352D02*
X43281448Y-28971352D01*
X42900496Y-28438019D02*
X42900496Y-29809448D01*
X42900496Y-29809448D02*
X42976686Y-29961829D01*
X42976686Y-29961829D02*
X43129067Y-30038019D01*
X43129067Y-30038019D02*
X43281448Y-30038019D01*
X44424306Y-29961829D02*
X44271925Y-30038019D01*
X44271925Y-30038019D02*
X43967163Y-30038019D01*
X43967163Y-30038019D02*
X43814782Y-29961829D01*
X43814782Y-29961829D02*
X43738591Y-29809448D01*
X43738591Y-29809448D02*
X43738591Y-29199924D01*
X43738591Y-29199924D02*
X43814782Y-29047543D01*
X43814782Y-29047543D02*
X43967163Y-28971352D01*
X43967163Y-28971352D02*
X44271925Y-28971352D01*
X44271925Y-28971352D02*
X44424306Y-29047543D01*
X44424306Y-29047543D02*
X44500496Y-29199924D01*
X44500496Y-29199924D02*
X44500496Y-29352305D01*
X44500496Y-29352305D02*
X43738591Y-29504686D01*
X40690972Y-32537739D02*
X40538591Y-32613929D01*
X40538591Y-32613929D02*
X40233829Y-32613929D01*
X40233829Y-32613929D02*
X40081448Y-32537739D01*
X40081448Y-32537739D02*
X40005258Y-32461548D01*
X40005258Y-32461548D02*
X39929067Y-32309167D01*
X39929067Y-32309167D02*
X39929067Y-31852024D01*
X39929067Y-31852024D02*
X40005258Y-31699643D01*
X40005258Y-31699643D02*
X40081448Y-31623453D01*
X40081448Y-31623453D02*
X40233829Y-31547262D01*
X40233829Y-31547262D02*
X40538591Y-31547262D01*
X40538591Y-31547262D02*
X40690972Y-31623453D01*
X41224306Y-31547262D02*
X41605258Y-32613929D01*
X41605258Y-32613929D02*
X41986211Y-31547262D01*
X40767163Y-33589839D02*
X40005258Y-33589839D01*
X40005258Y-33589839D02*
X39929067Y-34351744D01*
X39929067Y-34351744D02*
X40005258Y-34275553D01*
X40005258Y-34275553D02*
X40157639Y-34199363D01*
X40157639Y-34199363D02*
X40538591Y-34199363D01*
X40538591Y-34199363D02*
X40690972Y-34275553D01*
X40690972Y-34275553D02*
X40767163Y-34351744D01*
X40767163Y-34351744D02*
X40843353Y-34504125D01*
X40843353Y-34504125D02*
X40843353Y-34885077D01*
X40843353Y-34885077D02*
X40767163Y-35037458D01*
X40767163Y-35037458D02*
X40690972Y-35113649D01*
X40690972Y-35113649D02*
X40538591Y-35189839D01*
X40538591Y-35189839D02*
X40157639Y-35189839D01*
X40157639Y-35189839D02*
X40005258Y-35113649D01*
X40005258Y-35113649D02*
X39929067Y-35037458D01*
X40843353Y-37765749D02*
X39929067Y-37765749D01*
X40386210Y-37765749D02*
X40386210Y-36165749D01*
X40386210Y-36165749D02*
X40233829Y-36394320D01*
X40233829Y-36394320D02*
X40081448Y-36546701D01*
X40081448Y-36546701D02*
X39929067Y-36622892D01*
X41452877Y-36318130D02*
X41529068Y-36241939D01*
X41529068Y-36241939D02*
X41681449Y-36165749D01*
X41681449Y-36165749D02*
X42062401Y-36165749D01*
X42062401Y-36165749D02*
X42214782Y-36241939D01*
X42214782Y-36241939D02*
X42290973Y-36318130D01*
X42290973Y-36318130D02*
X42367163Y-36470511D01*
X42367163Y-36470511D02*
X42367163Y-36622892D01*
X42367163Y-36622892D02*
X42290973Y-36851463D01*
X42290973Y-36851463D02*
X41376687Y-37765749D01*
X41376687Y-37765749D02*
X42367163Y-37765749D01*
X40690972Y-39274992D02*
X40690972Y-40570230D01*
X40690972Y-40570230D02*
X40614782Y-40722611D01*
X40614782Y-40722611D02*
X40538591Y-40798802D01*
X40538591Y-40798802D02*
X40386210Y-40874992D01*
X40386210Y-40874992D02*
X40157639Y-40874992D01*
X40157639Y-40874992D02*
X40005258Y-40798802D01*
X40690972Y-40265469D02*
X40538591Y-40341659D01*
X40538591Y-40341659D02*
X40233829Y-40341659D01*
X40233829Y-40341659D02*
X40081448Y-40265469D01*
X40081448Y-40265469D02*
X40005258Y-40189278D01*
X40005258Y-40189278D02*
X39929067Y-40036897D01*
X39929067Y-40036897D02*
X39929067Y-39579754D01*
X39929067Y-39579754D02*
X40005258Y-39427373D01*
X40005258Y-39427373D02*
X40081448Y-39351183D01*
X40081448Y-39351183D02*
X40233829Y-39274992D01*
X40233829Y-39274992D02*
X40538591Y-39274992D01*
X40538591Y-39274992D02*
X40690972Y-39351183D01*
X41452877Y-39274992D02*
X41452877Y-40341659D01*
X41452877Y-39427373D02*
X41529067Y-39351183D01*
X41529067Y-39351183D02*
X41681448Y-39274992D01*
X41681448Y-39274992D02*
X41910020Y-39274992D01*
X41910020Y-39274992D02*
X42062401Y-39351183D01*
X42062401Y-39351183D02*
X42138591Y-39503564D01*
X42138591Y-39503564D02*
X42138591Y-40341659D01*
X43586210Y-40341659D02*
X43586210Y-38741659D01*
X43586210Y-40265469D02*
X43433829Y-40341659D01*
X43433829Y-40341659D02*
X43129067Y-40341659D01*
X43129067Y-40341659D02*
X42976686Y-40265469D01*
X42976686Y-40265469D02*
X42900496Y-40189278D01*
X42900496Y-40189278D02*
X42824305Y-40036897D01*
X42824305Y-40036897D02*
X42824305Y-39579754D01*
X42824305Y-39579754D02*
X42900496Y-39427373D01*
X42900496Y-39427373D02*
X42976686Y-39351183D01*
X42976686Y-39351183D02*
X43129067Y-39274992D01*
X43129067Y-39274992D02*
X43433829Y-39274992D01*
X43433829Y-39274992D02*
X43586210Y-39351183D01*
X40690972Y-41850902D02*
X40690972Y-43146140D01*
X40690972Y-43146140D02*
X40614782Y-43298521D01*
X40614782Y-43298521D02*
X40538591Y-43374712D01*
X40538591Y-43374712D02*
X40386210Y-43450902D01*
X40386210Y-43450902D02*
X40157639Y-43450902D01*
X40157639Y-43450902D02*
X40005258Y-43374712D01*
X40690972Y-42841379D02*
X40538591Y-42917569D01*
X40538591Y-42917569D02*
X40233829Y-42917569D01*
X40233829Y-42917569D02*
X40081448Y-42841379D01*
X40081448Y-42841379D02*
X40005258Y-42765188D01*
X40005258Y-42765188D02*
X39929067Y-42612807D01*
X39929067Y-42612807D02*
X39929067Y-42155664D01*
X39929067Y-42155664D02*
X40005258Y-42003283D01*
X40005258Y-42003283D02*
X40081448Y-41927093D01*
X40081448Y-41927093D02*
X40233829Y-41850902D01*
X40233829Y-41850902D02*
X40538591Y-41850902D01*
X40538591Y-41850902D02*
X40690972Y-41927093D01*
X41452877Y-41850902D02*
X41452877Y-42917569D01*
X41452877Y-42003283D02*
X41529067Y-41927093D01*
X41529067Y-41927093D02*
X41681448Y-41850902D01*
X41681448Y-41850902D02*
X41910020Y-41850902D01*
X41910020Y-41850902D02*
X42062401Y-41927093D01*
X42062401Y-41927093D02*
X42138591Y-42079474D01*
X42138591Y-42079474D02*
X42138591Y-42917569D01*
X43586210Y-42917569D02*
X43586210Y-41317569D01*
X43586210Y-42841379D02*
X43433829Y-42917569D01*
X43433829Y-42917569D02*
X43129067Y-42917569D01*
X43129067Y-42917569D02*
X42976686Y-42841379D01*
X42976686Y-42841379D02*
X42900496Y-42765188D01*
X42900496Y-42765188D02*
X42824305Y-42612807D01*
X42824305Y-42612807D02*
X42824305Y-42155664D01*
X42824305Y-42155664D02*
X42900496Y-42003283D01*
X42900496Y-42003283D02*
X42976686Y-41927093D01*
X42976686Y-41927093D02*
X43129067Y-41850902D01*
X43129067Y-41850902D02*
X43433829Y-41850902D01*
X43433829Y-41850902D02*
X43586210Y-41927093D01*
X40690972Y-44426812D02*
X40690972Y-45722050D01*
X40690972Y-45722050D02*
X40614782Y-45874431D01*
X40614782Y-45874431D02*
X40538591Y-45950622D01*
X40538591Y-45950622D02*
X40386210Y-46026812D01*
X40386210Y-46026812D02*
X40157639Y-46026812D01*
X40157639Y-46026812D02*
X40005258Y-45950622D01*
X40690972Y-45417289D02*
X40538591Y-45493479D01*
X40538591Y-45493479D02*
X40233829Y-45493479D01*
X40233829Y-45493479D02*
X40081448Y-45417289D01*
X40081448Y-45417289D02*
X40005258Y-45341098D01*
X40005258Y-45341098D02*
X39929067Y-45188717D01*
X39929067Y-45188717D02*
X39929067Y-44731574D01*
X39929067Y-44731574D02*
X40005258Y-44579193D01*
X40005258Y-44579193D02*
X40081448Y-44503003D01*
X40081448Y-44503003D02*
X40233829Y-44426812D01*
X40233829Y-44426812D02*
X40538591Y-44426812D01*
X40538591Y-44426812D02*
X40690972Y-44503003D01*
X41452877Y-44426812D02*
X41452877Y-45493479D01*
X41452877Y-44579193D02*
X41529067Y-44503003D01*
X41529067Y-44503003D02*
X41681448Y-44426812D01*
X41681448Y-44426812D02*
X41910020Y-44426812D01*
X41910020Y-44426812D02*
X42062401Y-44503003D01*
X42062401Y-44503003D02*
X42138591Y-44655384D01*
X42138591Y-44655384D02*
X42138591Y-45493479D01*
X43586210Y-45493479D02*
X43586210Y-43893479D01*
X43586210Y-45417289D02*
X43433829Y-45493479D01*
X43433829Y-45493479D02*
X43129067Y-45493479D01*
X43129067Y-45493479D02*
X42976686Y-45417289D01*
X42976686Y-45417289D02*
X42900496Y-45341098D01*
X42900496Y-45341098D02*
X42824305Y-45188717D01*
X42824305Y-45188717D02*
X42824305Y-44731574D01*
X42824305Y-44731574D02*
X42900496Y-44579193D01*
X42900496Y-44579193D02*
X42976686Y-44503003D01*
X42976686Y-44503003D02*
X43129067Y-44426812D01*
X43129067Y-44426812D02*
X43433829Y-44426812D01*
X43433829Y-44426812D02*
X43586210Y-44503003D01*
X40005258Y-47459865D02*
X41224306Y-47459865D01*
X42824305Y-48069389D02*
X41910019Y-48069389D01*
X42367162Y-48069389D02*
X42367162Y-46469389D01*
X42367162Y-46469389D02*
X42214781Y-46697960D01*
X42214781Y-46697960D02*
X42062400Y-46850341D01*
X42062400Y-46850341D02*
X41910019Y-46926532D01*
X43433829Y-46621770D02*
X43510020Y-46545579D01*
X43510020Y-46545579D02*
X43662401Y-46469389D01*
X43662401Y-46469389D02*
X44043353Y-46469389D01*
X44043353Y-46469389D02*
X44195734Y-46545579D01*
X44195734Y-46545579D02*
X44271925Y-46621770D01*
X44271925Y-46621770D02*
X44348115Y-46774151D01*
X44348115Y-46774151D02*
X44348115Y-46926532D01*
X44348115Y-46926532D02*
X44271925Y-47155103D01*
X44271925Y-47155103D02*
X43357639Y-48069389D01*
X43357639Y-48069389D02*
X44348115Y-48069389D01*
D12*
G36*
X114094294Y-44552960D02*
G01*
X114421622Y-44363977D01*
X114443846Y-44346709D01*
X114457312Y-44325920D01*
X114461691Y-44304540D01*
X114458368Y-44281250D01*
X114452100Y-44265580D01*
X113659842Y-42540663D01*
X113514422Y-42624621D01*
X114014297Y-43742489D01*
X114035669Y-43801632D01*
X114044643Y-43852859D01*
X114042718Y-43888394D01*
X114032555Y-43919315D01*
X113992549Y-43964354D01*
X113979211Y-43972856D01*
X113945141Y-43987993D01*
X113912026Y-43993432D01*
X113853865Y-43978911D01*
X113792563Y-43929519D01*
X113759732Y-43889462D01*
X113044000Y-42896219D01*
X112898474Y-42980239D01*
X113993841Y-44530156D01*
X114012080Y-44550716D01*
X114033210Y-44562449D01*
X114077739Y-44560742D01*
X114094294Y-44552960D01*
G37*
G36*
X114678323Y-42874908D02*
G01*
X114699197Y-42888058D01*
X114716478Y-42910236D01*
X114848063Y-43138149D01*
X114856215Y-43155729D01*
X114860408Y-43178644D01*
X114856744Y-43199590D01*
X114843610Y-43220433D01*
X114821483Y-43237680D01*
X114678390Y-43320296D01*
X114659620Y-43328631D01*
X114636826Y-43331951D01*
X114615553Y-43327552D01*
X114595474Y-43314658D01*
X114578903Y-43293549D01*
X114447318Y-43065636D01*
X114439215Y-43048194D01*
X114434991Y-43025291D01*
X114438630Y-43004364D01*
X114451781Y-42983491D01*
X114473959Y-42966210D01*
X114617052Y-42883595D01*
X114634494Y-42875493D01*
X114657396Y-42871268D01*
X114678323Y-42874908D01*
G37*
G36*
X114461224Y-42157012D02*
G01*
X114505754Y-42172386D01*
X114549333Y-42196102D01*
X114590424Y-42227805D01*
X114629962Y-42269012D01*
X114665977Y-42318650D01*
X115010214Y-42892660D01*
X115335203Y-43477783D01*
X115336541Y-43480356D01*
X115375809Y-43587341D01*
X115382092Y-43686138D01*
X115373740Y-43732417D01*
X115357923Y-43776296D01*
X115334231Y-43818219D01*
X115303038Y-43856925D01*
X115262998Y-43893209D01*
X115215213Y-43925257D01*
X115076984Y-44005064D01*
X115075522Y-44005904D01*
X114975845Y-44046487D01*
X114880339Y-44054494D01*
X114834175Y-44046824D01*
X114789651Y-44031432D01*
X114746089Y-44007703D01*
X114705024Y-43975993D01*
X114665530Y-43934796D01*
X114629570Y-43885180D01*
X114285228Y-43311231D01*
X114021464Y-42836136D01*
X114242443Y-42836136D01*
X114244279Y-42875877D01*
X114256773Y-42925085D01*
X114280259Y-42977782D01*
X114423456Y-43231425D01*
X114571458Y-43482153D01*
X114588502Y-43507498D01*
X114649533Y-43570718D01*
X114715371Y-43600579D01*
X114754270Y-43604248D01*
X114796066Y-43599283D01*
X114849081Y-43582429D01*
X114906868Y-43553609D01*
X114909300Y-43552205D01*
X114939479Y-43533467D01*
X115010909Y-43470769D01*
X115046527Y-43405062D01*
X115053015Y-43367555D01*
X115051158Y-43327836D01*
X115038637Y-43278659D01*
X115015122Y-43226003D01*
X114874418Y-42971062D01*
X114723923Y-42721632D01*
X114707217Y-42696774D01*
X114646041Y-42633686D01*
X114579530Y-42603766D01*
X114540314Y-42600105D01*
X114498330Y-42605071D01*
X114445604Y-42621758D01*
X114388513Y-42650176D01*
X114386081Y-42651580D01*
X114356057Y-42670216D01*
X114284604Y-42732898D01*
X114248951Y-42798614D01*
X114242443Y-42836136D01*
X114021464Y-42836136D01*
X113960345Y-42726047D01*
X113958984Y-42723433D01*
X113919664Y-42616487D01*
X113913342Y-42517742D01*
X113921678Y-42471479D01*
X113937482Y-42427618D01*
X113961169Y-42385698D01*
X113992363Y-42346993D01*
X114032421Y-42310695D01*
X114080229Y-42278633D01*
X114218458Y-42198827D01*
X114219856Y-42198023D01*
X114319552Y-42157403D01*
X114415059Y-42149361D01*
X114461224Y-42157012D01*
G37*
G36*
X115746481Y-43599070D02*
G01*
X115938013Y-43488489D01*
X115960191Y-43471208D01*
X115973341Y-43450335D01*
X115976981Y-43429408D01*
X115972756Y-43406505D01*
X115964654Y-43389063D01*
X115791058Y-43088387D01*
X115773778Y-43066209D01*
X115752904Y-43053059D01*
X115731977Y-43049419D01*
X115709074Y-43053644D01*
X115691633Y-43061746D01*
X115500101Y-43172327D01*
X115477973Y-43189574D01*
X115464834Y-43210408D01*
X115461160Y-43231349D01*
X115465343Y-43254245D01*
X115473460Y-43271752D01*
X115647056Y-43572429D01*
X115663619Y-43593525D01*
X115683681Y-43606390D01*
X115727705Y-43607415D01*
X115746481Y-43599070D01*
G37*
G36*
X116257515Y-43304024D02*
G01*
X116890384Y-42938637D01*
X116915842Y-42919333D01*
X116929063Y-42897510D01*
X116925395Y-42856173D01*
X116917025Y-42839212D01*
X116743429Y-42538535D01*
X116724151Y-42513121D01*
X116702326Y-42499898D01*
X116660938Y-42503541D01*
X116644004Y-42511894D01*
X116413658Y-42644885D01*
X115680075Y-41374281D01*
X115534549Y-41458300D01*
X115390912Y-41864574D01*
X115383790Y-41894980D01*
X115386400Y-41926124D01*
X115411927Y-41984993D01*
X115565923Y-42251720D01*
X115592358Y-42289580D01*
X115615591Y-42305582D01*
X115628303Y-42304472D01*
X115639949Y-42295019D01*
X115663045Y-42240912D01*
X115756710Y-41899026D01*
X115783361Y-41883639D01*
X116270565Y-42727500D01*
X116011135Y-42877282D01*
X115985737Y-42896544D01*
X115972517Y-42918320D01*
X115976090Y-42959648D01*
X115984494Y-42976707D01*
X116158089Y-43277383D01*
X116177393Y-43302842D01*
X116199216Y-43316062D01*
X116240554Y-43312395D01*
X116257515Y-43304024D01*
G37*
G36*
X117145990Y-40625226D02*
G01*
X117191018Y-40640489D01*
X117235533Y-40664347D01*
X117277592Y-40696277D01*
X117318476Y-40738062D01*
X117355879Y-40788338D01*
X117525537Y-41065341D01*
X117680661Y-41350877D01*
X117724216Y-41463670D01*
X117737634Y-41573350D01*
X117720530Y-41673223D01*
X117700665Y-41719895D01*
X117673330Y-41763749D01*
X117637409Y-41805684D01*
X117593668Y-41844026D01*
X117632663Y-41889340D01*
X117637097Y-41894123D01*
X117676684Y-41916663D01*
X117702834Y-41915473D01*
X117731397Y-41903548D01*
X117864760Y-41826550D01*
X117883662Y-41818164D01*
X117927718Y-41819231D01*
X117947755Y-41832078D01*
X117964291Y-41853130D01*
X118129460Y-42139212D01*
X118137796Y-42157982D01*
X118141116Y-42180775D01*
X118136717Y-42202049D01*
X118123823Y-42222127D01*
X118102714Y-42238698D01*
X118044546Y-42272281D01*
X117990321Y-42298961D01*
X117899004Y-42321016D01*
X117855174Y-42320210D01*
X117812326Y-42311542D01*
X117767577Y-42293584D01*
X117723771Y-42266612D01*
X117675621Y-42225576D01*
X117628413Y-42173116D01*
X117491933Y-42009510D01*
X117487476Y-42004702D01*
X117447950Y-41982165D01*
X117421807Y-41983351D01*
X117393199Y-41995302D01*
X117322868Y-42035908D01*
X117605641Y-42525683D01*
X117460220Y-42609642D01*
X116676759Y-41252647D01*
X116870653Y-41252647D01*
X117087663Y-41628519D01*
X117296222Y-41508107D01*
X117364120Y-41468907D01*
X117400751Y-41443075D01*
X117438942Y-41392105D01*
X117447054Y-41362235D01*
X117447192Y-41329802D01*
X117437578Y-41290267D01*
X117417362Y-41247517D01*
X117361308Y-41150429D01*
X117338853Y-41117511D01*
X117287812Y-41075804D01*
X117258286Y-41066451D01*
X117226827Y-41065271D01*
X117188102Y-41073907D01*
X117147110Y-41093035D01*
X116870653Y-41252647D01*
X116676759Y-41252647D01*
X116516649Y-40975329D01*
X116508547Y-40957887D01*
X116504322Y-40934984D01*
X116507962Y-40914057D01*
X116521112Y-40893184D01*
X116543290Y-40875903D01*
X116904567Y-40667320D01*
X117003525Y-40626409D01*
X117099333Y-40617755D01*
X117145990Y-40625226D01*
G37*
G36*
X118398102Y-42068156D02*
G01*
X118924259Y-41764378D01*
X118946437Y-41747098D01*
X118959588Y-41726224D01*
X118963227Y-41705297D01*
X118959003Y-41682395D01*
X118950900Y-41664953D01*
X118778709Y-41366709D01*
X118762146Y-41345613D01*
X118742084Y-41332748D01*
X118698060Y-41331723D01*
X118679284Y-41340068D01*
X118230649Y-41599088D01*
X118150843Y-41460859D01*
X118487900Y-41266259D01*
X118508997Y-41249695D01*
X118521861Y-41229634D01*
X118522887Y-41185609D01*
X118514541Y-41166833D01*
X118343755Y-40871022D01*
X118327191Y-40849926D01*
X118307130Y-40837061D01*
X118263105Y-40836035D01*
X118244329Y-40844381D01*
X117907271Y-41038982D01*
X117740637Y-40750362D01*
X118179542Y-40496960D01*
X118201720Y-40479680D01*
X118214870Y-40458806D01*
X118218509Y-40437879D01*
X118214285Y-40414976D01*
X118206183Y-40397535D01*
X118033991Y-40099291D01*
X118016711Y-40077113D01*
X117995837Y-40063962D01*
X117974910Y-40060323D01*
X117952007Y-40064548D01*
X117934566Y-40072650D01*
X117418139Y-40370809D01*
X117395961Y-40388090D01*
X117382811Y-40408963D01*
X117379171Y-40429890D01*
X117383396Y-40452793D01*
X117391498Y-40470234D01*
X118298677Y-42041515D01*
X118315240Y-42062611D01*
X118335302Y-42075475D01*
X118379327Y-42076501D01*
X118398102Y-42068156D01*
G37*
G36*
X119311236Y-41540957D02*
G01*
X119638564Y-41351974D01*
X119660787Y-41334706D01*
X119674254Y-41313917D01*
X119678633Y-41292537D01*
X119675309Y-41269248D01*
X119669042Y-41253577D01*
X118876784Y-39528660D01*
X118731364Y-39612618D01*
X119231239Y-40730486D01*
X119252611Y-40789630D01*
X119261585Y-40840856D01*
X119259659Y-40876391D01*
X119249497Y-40907312D01*
X119209491Y-40952351D01*
X119196153Y-40960853D01*
X119162083Y-40975990D01*
X119128968Y-40981429D01*
X119070807Y-40966908D01*
X119009505Y-40917516D01*
X118976674Y-40877459D01*
X118260942Y-39884216D01*
X118115416Y-39968236D01*
X119210783Y-41518153D01*
X119229021Y-41538713D01*
X119250152Y-41550447D01*
X119294681Y-41548740D01*
X119311236Y-41540957D01*
G37*
G36*
X119657548Y-40400312D02*
G01*
X120239441Y-40064356D01*
X120260506Y-40047813D01*
X120273382Y-40027758D01*
X120274503Y-39983660D01*
X120266126Y-39964764D01*
X120173742Y-39804749D01*
X120157206Y-39783696D01*
X120137168Y-39770850D01*
X120093112Y-39769782D01*
X120074210Y-39778169D01*
X119492318Y-40114125D01*
X119471221Y-40130688D01*
X119458357Y-40150750D01*
X119457331Y-40194774D01*
X119465677Y-40213550D01*
X119558061Y-40373565D01*
X119575350Y-40395757D01*
X119596242Y-40408939D01*
X119617190Y-40412610D01*
X119640110Y-40408406D01*
X119657548Y-40400312D01*
G37*
G36*
X120593590Y-38616262D02*
G01*
X120634430Y-38632366D01*
X120676660Y-38658656D01*
X120716934Y-38694183D01*
X120760231Y-38745521D01*
X120801258Y-38808736D01*
X121611839Y-40212704D01*
X121468745Y-40295319D01*
X121185973Y-39805543D01*
X120761557Y-40050580D01*
X121044330Y-40540355D01*
X120903774Y-40621505D01*
X120143899Y-39305364D01*
X120369010Y-39305364D01*
X120373334Y-39346510D01*
X120388908Y-39397268D01*
X120415771Y-39451659D01*
X120517986Y-39628702D01*
X120942402Y-39383665D01*
X120840186Y-39206623D01*
X120817160Y-39170489D01*
X120755529Y-39105186D01*
X120689040Y-39073704D01*
X120650533Y-39069307D01*
X120609686Y-39073409D01*
X120559541Y-39088628D01*
X120505974Y-39115015D01*
X120468963Y-39138666D01*
X120404281Y-39200146D01*
X120373215Y-39266664D01*
X120369010Y-39305364D01*
X120143899Y-39305364D01*
X120093193Y-39217538D01*
X120078807Y-39191517D01*
X120033397Y-39078477D01*
X120022957Y-38984564D01*
X120029120Y-38941880D01*
X120042809Y-38901499D01*
X120065638Y-38861037D01*
X120097051Y-38822994D01*
X120142601Y-38783049D01*
X120199094Y-38745905D01*
X120337323Y-38666098D01*
X120357138Y-38655128D01*
X120460930Y-38614752D01*
X120550941Y-38608009D01*
X120593590Y-38616262D01*
G37*
D13*
G36*
X114992447Y-46611762D02*
G01*
X115576773Y-46274401D01*
X115602231Y-46255097D01*
X115615451Y-46233274D01*
X115611784Y-46191937D01*
X115603414Y-46174976D01*
X115429818Y-45874299D01*
X115410539Y-45848885D01*
X115388715Y-45835662D01*
X115347326Y-45839305D01*
X115330393Y-45847659D01*
X114838184Y-46131835D01*
X114815578Y-46084864D01*
X114802271Y-46038369D01*
X114798192Y-45995418D01*
X114802081Y-45952716D01*
X114819069Y-45897226D01*
X114991244Y-45484206D01*
X115012174Y-45423671D01*
X115023655Y-45364321D01*
X115025837Y-45310463D01*
X115020091Y-45255967D01*
X114983927Y-45140364D01*
X114972944Y-45116432D01*
X114867309Y-44930902D01*
X114798320Y-44819592D01*
X114756470Y-44762066D01*
X114712594Y-44716009D01*
X114671889Y-44684736D01*
X114629338Y-44662370D01*
X114587786Y-44649481D01*
X114544417Y-44644300D01*
X114451273Y-44657079D01*
X114338744Y-44706730D01*
X114212572Y-44779575D01*
X114155466Y-44817086D01*
X114109739Y-44857216D01*
X114078912Y-44894806D01*
X114056834Y-44934687D01*
X114044103Y-44974088D01*
X114038958Y-45015695D01*
X114051678Y-45107025D01*
X114102418Y-45221372D01*
X114310856Y-45560171D01*
X114456382Y-45476151D01*
X114427192Y-45412894D01*
X114411095Y-45357087D01*
X114407641Y-45316458D01*
X114412963Y-45280142D01*
X114444921Y-45224284D01*
X114495334Y-45185313D01*
X114589989Y-45130664D01*
X114634943Y-45109310D01*
X114676592Y-45099415D01*
X114708701Y-45100140D01*
X114738911Y-45109132D01*
X114792317Y-45150464D01*
X114827418Y-45200451D01*
X114843306Y-45235825D01*
X114851300Y-45273385D01*
X114844205Y-45355145D01*
X114822821Y-45416459D01*
X114648590Y-45837153D01*
X114628582Y-45896051D01*
X114617597Y-45954518D01*
X114615632Y-46008531D01*
X114621681Y-46062944D01*
X114658176Y-46173905D01*
X114683034Y-46221411D01*
X114893022Y-46585121D01*
X114912326Y-46610579D01*
X114934149Y-46623799D01*
X114975486Y-46620132D01*
X114992447Y-46611762D01*
G37*
G36*
X115725704Y-44847553D02*
G01*
X115746578Y-44860703D01*
X115763858Y-44882881D01*
X115895444Y-45110794D01*
X115903595Y-45128373D01*
X115907789Y-45151289D01*
X115904125Y-45172234D01*
X115890991Y-45193077D01*
X115868864Y-45210325D01*
X115725770Y-45292940D01*
X115707000Y-45301276D01*
X115684207Y-45304596D01*
X115662933Y-45300197D01*
X115642855Y-45287303D01*
X115626284Y-45266194D01*
X115494698Y-45038280D01*
X115486596Y-45020839D01*
X115482372Y-44997936D01*
X115486011Y-44977009D01*
X115499161Y-44956135D01*
X115521339Y-44938855D01*
X115664433Y-44856240D01*
X115681874Y-44848138D01*
X115704777Y-44843913D01*
X115725704Y-44847553D01*
G37*
G36*
X115508604Y-44129657D02*
G01*
X115553135Y-44145031D01*
X115596714Y-44168747D01*
X115637805Y-44200450D01*
X115677343Y-44241657D01*
X115713358Y-44291295D01*
X116057595Y-44865305D01*
X116382583Y-45450427D01*
X116383922Y-45453001D01*
X116423190Y-45559986D01*
X116429472Y-45658783D01*
X116421121Y-45705062D01*
X116405303Y-45748941D01*
X116381612Y-45790863D01*
X116350418Y-45829570D01*
X116310378Y-45865854D01*
X116262593Y-45897902D01*
X116124365Y-45977709D01*
X116122902Y-45978549D01*
X116023226Y-46019132D01*
X115927719Y-46027138D01*
X115881556Y-46019469D01*
X115837032Y-46004077D01*
X115793470Y-45980348D01*
X115752404Y-45948638D01*
X115712910Y-45907441D01*
X115676951Y-45857824D01*
X115332608Y-45283876D01*
X115068845Y-44808781D01*
X115289824Y-44808781D01*
X115291660Y-44848522D01*
X115304154Y-44897730D01*
X115327640Y-44950427D01*
X115470837Y-45204069D01*
X115618838Y-45454797D01*
X115635883Y-45480142D01*
X115696914Y-45543363D01*
X115762751Y-45573224D01*
X115801650Y-45576893D01*
X115843446Y-45571927D01*
X115896461Y-45555074D01*
X115954248Y-45526254D01*
X115956681Y-45524850D01*
X115986860Y-45506111D01*
X116058290Y-45443414D01*
X116093908Y-45377707D01*
X116100396Y-45340200D01*
X116098538Y-45300480D01*
X116086017Y-45251304D01*
X116062502Y-45198648D01*
X115921799Y-44943707D01*
X115771304Y-44694277D01*
X115754597Y-44669419D01*
X115693421Y-44606331D01*
X115626911Y-44576411D01*
X115587695Y-44572750D01*
X115545711Y-44577716D01*
X115492985Y-44594402D01*
X115435894Y-44622821D01*
X115433461Y-44624225D01*
X115403438Y-44642861D01*
X115331984Y-44705543D01*
X115296332Y-44771259D01*
X115289824Y-44808781D01*
X115068845Y-44808781D01*
X115007726Y-44698692D01*
X115006364Y-44696078D01*
X114967045Y-44589132D01*
X114960723Y-44490386D01*
X114969059Y-44444124D01*
X114984862Y-44400263D01*
X115008550Y-44358343D01*
X115039744Y-44319637D01*
X115079801Y-44283340D01*
X115127610Y-44251278D01*
X115265838Y-44171472D01*
X115267237Y-44170668D01*
X115366933Y-44130048D01*
X115462440Y-44122005D01*
X115508604Y-44129657D01*
G37*
G36*
X116796294Y-45570310D02*
G01*
X117380620Y-45232950D01*
X117406078Y-45213646D01*
X117419298Y-45191823D01*
X117415631Y-45150485D01*
X117407261Y-45133524D01*
X117233665Y-44832848D01*
X117214386Y-44807434D01*
X117192561Y-44794210D01*
X117151173Y-44797854D01*
X117134240Y-44806207D01*
X116642031Y-45090384D01*
X116619425Y-45043413D01*
X116606118Y-44996917D01*
X116602039Y-44953966D01*
X116605927Y-44911265D01*
X116622916Y-44855774D01*
X116795091Y-44442755D01*
X116816021Y-44382220D01*
X116827502Y-44322870D01*
X116829684Y-44269011D01*
X116823938Y-44214516D01*
X116787774Y-44098912D01*
X116776791Y-44074980D01*
X116671156Y-43889450D01*
X116602167Y-43778141D01*
X116560317Y-43720614D01*
X116516441Y-43674558D01*
X116475736Y-43643284D01*
X116433184Y-43620919D01*
X116391633Y-43608030D01*
X116348264Y-43602848D01*
X116255120Y-43615628D01*
X116142591Y-43665279D01*
X116016419Y-43738124D01*
X115959313Y-43775634D01*
X115913585Y-43815764D01*
X115882759Y-43853354D01*
X115860681Y-43893235D01*
X115847950Y-43932636D01*
X115842805Y-43974243D01*
X115855525Y-44065574D01*
X115906265Y-44179920D01*
X116114703Y-44518719D01*
X116260229Y-44434700D01*
X116231039Y-44371442D01*
X116214941Y-44315635D01*
X116211488Y-44275006D01*
X116216810Y-44238691D01*
X116248768Y-44182833D01*
X116299180Y-44143862D01*
X116393836Y-44089212D01*
X116438790Y-44067858D01*
X116480439Y-44057964D01*
X116512548Y-44058689D01*
X116542758Y-44067681D01*
X116596164Y-44109012D01*
X116631265Y-44159000D01*
X116647153Y-44194373D01*
X116655147Y-44231933D01*
X116648052Y-44313694D01*
X116626667Y-44375008D01*
X116452436Y-44795701D01*
X116432429Y-44854600D01*
X116421444Y-44913066D01*
X116419479Y-44967079D01*
X116425528Y-45021492D01*
X116462023Y-45132453D01*
X116486881Y-45179960D01*
X116696869Y-45543669D01*
X116716173Y-45569127D01*
X116737996Y-45582348D01*
X116779333Y-45578680D01*
X116796294Y-45570310D01*
G37*
G36*
X117308666Y-43075914D02*
G01*
X117349409Y-43088935D01*
X117391424Y-43111663D01*
X117431637Y-43143455D01*
X117475397Y-43190724D01*
X117517205Y-43249843D01*
X117599812Y-43392924D01*
X117691929Y-43569328D01*
X117548836Y-43651943D01*
X117505303Y-43591505D01*
X117446344Y-43540463D01*
X117417340Y-43528686D01*
X117388036Y-43525210D01*
X117350722Y-43531746D01*
X117311852Y-43549465D01*
X117171191Y-43630676D01*
X117134001Y-43656231D01*
X117092334Y-43707695D01*
X117082836Y-43737465D01*
X117081416Y-43769543D01*
X117089922Y-43810059D01*
X117109308Y-43853953D01*
X117289695Y-44183000D01*
X117326076Y-44161995D01*
X117309198Y-44120658D01*
X117307665Y-44096492D01*
X117313802Y-44074491D01*
X117331961Y-44050074D01*
X117361925Y-44028205D01*
X117512317Y-43941377D01*
X117615379Y-43895568D01*
X117707333Y-43882403D01*
X117750394Y-43887427D01*
X117791739Y-43900198D01*
X117834216Y-43922507D01*
X117874922Y-43953781D01*
X117918827Y-43999849D01*
X117960758Y-44057424D01*
X117965708Y-44065160D01*
X118052452Y-44205006D01*
X118167286Y-44426375D01*
X118205086Y-44530884D01*
X118215821Y-44630038D01*
X118196707Y-44715164D01*
X118174960Y-44755433D01*
X118145117Y-44792829D01*
X118102361Y-44831181D01*
X118049519Y-44866220D01*
X117903993Y-44950240D01*
X117815420Y-44989954D01*
X117727398Y-45002771D01*
X117685880Y-44997531D01*
X117645978Y-44984471D01*
X117604648Y-44961569D01*
X117565035Y-44929488D01*
X117522089Y-44881963D01*
X117481113Y-44822537D01*
X117229837Y-44399650D01*
X117425367Y-44399650D01*
X117433544Y-44426537D01*
X117472369Y-44488165D01*
X117474592Y-44491620D01*
X117514818Y-44529255D01*
X117541913Y-44537637D01*
X117572947Y-44537518D01*
X117618956Y-44525013D01*
X117672377Y-44498756D01*
X117788819Y-44431529D01*
X117817449Y-44413673D01*
X117873869Y-44362291D01*
X117892989Y-44313356D01*
X117890042Y-44284496D01*
X117877219Y-44254425D01*
X117847788Y-44203448D01*
X117846289Y-44200908D01*
X117808684Y-44162875D01*
X117782845Y-44154154D01*
X117752921Y-44153843D01*
X117708445Y-44165637D01*
X117656481Y-44191076D01*
X117525550Y-44266670D01*
X117451329Y-44324427D01*
X117426012Y-44373210D01*
X117425367Y-44399650D01*
X117229837Y-44399650D01*
X117137860Y-44244857D01*
X116809140Y-43658645D01*
X116761341Y-43543450D01*
X116750427Y-43450671D01*
X116756405Y-43408402D01*
X116769954Y-43368390D01*
X116792871Y-43327948D01*
X116824526Y-43289832D01*
X116871096Y-43249216D01*
X116929024Y-43211231D01*
X117069685Y-43130020D01*
X117175049Y-43083294D01*
X117266139Y-43070641D01*
X117308666Y-43075914D01*
G37*
G36*
X118180220Y-43830598D02*
G01*
X118762113Y-43494642D01*
X118783177Y-43478099D01*
X118796053Y-43458044D01*
X118797174Y-43413946D01*
X118788798Y-43395050D01*
X118696413Y-43235035D01*
X118679877Y-43213983D01*
X118659840Y-43201136D01*
X118615784Y-43200068D01*
X118596882Y-43208455D01*
X118014989Y-43544411D01*
X117993893Y-43560974D01*
X117981028Y-43581036D01*
X117980003Y-43625061D01*
X117988348Y-43643836D01*
X118080733Y-43803851D01*
X118098022Y-43826043D01*
X118118914Y-43839225D01*
X118139862Y-43842896D01*
X118162781Y-43838692D01*
X118180220Y-43830598D01*
G37*
G36*
X119489479Y-44015399D02*
G01*
X120122348Y-43650012D01*
X120147807Y-43630708D01*
X120161027Y-43608885D01*
X120157360Y-43567547D01*
X120148989Y-43550586D01*
X119975394Y-43249910D01*
X119956115Y-43224496D01*
X119934290Y-43211272D01*
X119892902Y-43214916D01*
X119875968Y-43223269D01*
X119645623Y-43356259D01*
X118912039Y-42085656D01*
X118766513Y-42169675D01*
X118622876Y-42575948D01*
X118615754Y-42606355D01*
X118618364Y-42637499D01*
X118643892Y-42696368D01*
X118797887Y-42963095D01*
X118824323Y-43000954D01*
X118847555Y-43016957D01*
X118860267Y-43015847D01*
X118871913Y-43006394D01*
X118895010Y-42952287D01*
X118988674Y-42610401D01*
X119015326Y-42595013D01*
X119502529Y-43438875D01*
X119243099Y-43588656D01*
X119217702Y-43607919D01*
X119204481Y-43629695D01*
X119208054Y-43671022D01*
X119216458Y-43688082D01*
X119390054Y-43988758D01*
X119409358Y-44014216D01*
X119431181Y-44027437D01*
X119472518Y-44023769D01*
X119489479Y-44015399D01*
G37*
G36*
X120223476Y-42250763D02*
G01*
X120244350Y-42263913D01*
X120261630Y-42286091D01*
X120393216Y-42514004D01*
X120401368Y-42531584D01*
X120405561Y-42554499D01*
X120401897Y-42575444D01*
X120388763Y-42596287D01*
X120366636Y-42613535D01*
X120223543Y-42696150D01*
X120204772Y-42704486D01*
X120181979Y-42707806D01*
X120160706Y-42703407D01*
X120140627Y-42690513D01*
X120124056Y-42669404D01*
X119992470Y-42441490D01*
X119984368Y-42424049D01*
X119980144Y-42401146D01*
X119983783Y-42380219D01*
X119996933Y-42359345D01*
X120019111Y-42342065D01*
X120162205Y-42259450D01*
X120179646Y-42251348D01*
X120202549Y-42247123D01*
X120223476Y-42250763D01*
G37*
G36*
X120006377Y-41532867D02*
G01*
X120050907Y-41548241D01*
X120094486Y-41571957D01*
X120135577Y-41603660D01*
X120175115Y-41644867D01*
X120211130Y-41694505D01*
X120555367Y-42268515D01*
X120880356Y-42853637D01*
X120881694Y-42856211D01*
X120920962Y-42963196D01*
X120927244Y-43061993D01*
X120918893Y-43108272D01*
X120903075Y-43152151D01*
X120879384Y-43194073D01*
X120848191Y-43232780D01*
X120808151Y-43269064D01*
X120760366Y-43301112D01*
X120622137Y-43380919D01*
X120620675Y-43381759D01*
X120520998Y-43422342D01*
X120425492Y-43430348D01*
X120379328Y-43422679D01*
X120334804Y-43407287D01*
X120291242Y-43383558D01*
X120250176Y-43351848D01*
X120210683Y-43310651D01*
X120174723Y-43261034D01*
X119830380Y-42687086D01*
X119566617Y-42211991D01*
X119787596Y-42211991D01*
X119789432Y-42251732D01*
X119801926Y-42300940D01*
X119825412Y-42353637D01*
X119968609Y-42607279D01*
X120116610Y-42858008D01*
X120133655Y-42883352D01*
X120194686Y-42946573D01*
X120260523Y-42976434D01*
X120299422Y-42980103D01*
X120341218Y-42975137D01*
X120394234Y-42958284D01*
X120452020Y-42929464D01*
X120454453Y-42928060D01*
X120484632Y-42909321D01*
X120556062Y-42846624D01*
X120591680Y-42780917D01*
X120598168Y-42743410D01*
X120596310Y-42703690D01*
X120583790Y-42654514D01*
X120560275Y-42601858D01*
X120419571Y-42346917D01*
X120269076Y-42097487D01*
X120252370Y-42072629D01*
X120191194Y-42009541D01*
X120124683Y-41979621D01*
X120085467Y-41975960D01*
X120043483Y-41980926D01*
X119990757Y-41997613D01*
X119933666Y-42026031D01*
X119931234Y-42027435D01*
X119901210Y-42046071D01*
X119829756Y-42108753D01*
X119794104Y-42174469D01*
X119787596Y-42211991D01*
X119566617Y-42211991D01*
X119505498Y-42101902D01*
X119504136Y-42099288D01*
X119464817Y-41992342D01*
X119458495Y-41893596D01*
X119466831Y-41847334D01*
X119482635Y-41803473D01*
X119506322Y-41761553D01*
X119537516Y-41722847D01*
X119577574Y-41686550D01*
X119625382Y-41654488D01*
X119763611Y-41574682D01*
X119765009Y-41573878D01*
X119864705Y-41533258D01*
X119960212Y-41525215D01*
X120006377Y-41532867D01*
G37*
G36*
X113321288Y-42254796D02*
G01*
X113528631Y-42135086D01*
X113611334Y-42080528D01*
X113678272Y-42021287D01*
X113724579Y-41964428D01*
X113758379Y-41903500D01*
X113778795Y-41842124D01*
X113788059Y-41776833D01*
X113772507Y-41631571D01*
X113708616Y-41463874D01*
X113426939Y-40942655D01*
X113194213Y-41077019D01*
X113233530Y-41156918D01*
X113255556Y-41230773D01*
X113260696Y-41289692D01*
X113253157Y-41344862D01*
X113204313Y-41440083D01*
X113103051Y-41530206D01*
X113059321Y-41557423D01*
X112979292Y-41596828D01*
X112904869Y-41619271D01*
X112844445Y-41625080D01*
X112787534Y-41618263D01*
X112687780Y-41570672D01*
X112592040Y-41471015D01*
X112560109Y-41423659D01*
X112352920Y-41072858D01*
X112154819Y-40721676D01*
X112116421Y-40636836D01*
X112095229Y-40558157D01*
X112091053Y-40496279D01*
X112099692Y-40438261D01*
X112150708Y-40339835D01*
X112253374Y-40249177D01*
X112290689Y-40226112D01*
X112368532Y-40188055D01*
X112441865Y-40166837D01*
X112501020Y-40162320D01*
X112557676Y-40170444D01*
X112659653Y-40221510D01*
X112762137Y-40328398D01*
X112788358Y-40365631D01*
X113017435Y-40233374D01*
X112704778Y-39725175D01*
X112639717Y-39637831D01*
X112572119Y-39568043D01*
X112509780Y-39520665D01*
X112445124Y-39486930D01*
X112382586Y-39467675D01*
X112317781Y-39460129D01*
X112180672Y-39479913D01*
X112033499Y-39545441D01*
X111826156Y-39665150D01*
X111740359Y-39721495D01*
X111671355Y-39781929D01*
X111624384Y-39838858D01*
X111590413Y-39899372D01*
X111570372Y-39959411D01*
X111561659Y-40022908D01*
X111578565Y-40162567D01*
X111649978Y-40334164D01*
X112140951Y-41209833D01*
X112653816Y-42072863D01*
X112715028Y-42161703D01*
X112779371Y-42232842D01*
X112838809Y-42280889D01*
X112901069Y-42315368D01*
X112961611Y-42335306D01*
X113024898Y-42343642D01*
X113160739Y-42325605D01*
X113321288Y-42254796D01*
G37*
G36*
X115054169Y-41225127D02*
G01*
X115272458Y-41099098D01*
X113802513Y-38553078D01*
X113584224Y-38679107D01*
X114243588Y-39821160D01*
X113617910Y-40182395D01*
X112958546Y-39040343D01*
X112740416Y-39166280D01*
X114210361Y-41712300D01*
X114428491Y-41586362D01*
X113983359Y-40815370D01*
X114609036Y-40454135D01*
X115054169Y-41225127D01*
G37*
G36*
X116001359Y-40707456D02*
G01*
X116208702Y-40587747D01*
X116297907Y-40529434D01*
X116369747Y-40467364D01*
X116418565Y-40409495D01*
X116453986Y-40348351D01*
X116474879Y-40288524D01*
X116484246Y-40225588D01*
X116468365Y-40089579D01*
X116400080Y-39928077D01*
X116392336Y-39914428D01*
X115155398Y-37771990D01*
X114937109Y-37898019D01*
X115867400Y-39509329D01*
X115906995Y-39589671D01*
X115929934Y-39664825D01*
X115936331Y-39726393D01*
X115929994Y-39784280D01*
X115883433Y-39883796D01*
X115787008Y-39974830D01*
X115737285Y-40006434D01*
X115658176Y-40045308D01*
X115583910Y-40067661D01*
X115522938Y-40073600D01*
X115465403Y-40066840D01*
X115365814Y-40019314D01*
X115273845Y-39921181D01*
X115241722Y-39870564D01*
X114311431Y-38259254D01*
X114093301Y-38385192D01*
X115330238Y-40527630D01*
X115388474Y-40616702D01*
X115450339Y-40688186D01*
X115507828Y-40736473D01*
X115568532Y-40771338D01*
X115627970Y-40791745D01*
X115690510Y-40800661D01*
X115826303Y-40783971D01*
X115988845Y-40714570D01*
X116001359Y-40707456D01*
G37*
G36*
X115500774Y-37698653D02*
G01*
X116916131Y-40150123D01*
X117126964Y-40028398D01*
X116704913Y-39297383D01*
X117163225Y-39032777D01*
X117196491Y-39006856D01*
X117216217Y-38975545D01*
X117221676Y-38944155D01*
X117215339Y-38909801D01*
X117203186Y-38883639D01*
X116944899Y-38436273D01*
X116918979Y-38403006D01*
X116887668Y-38383280D01*
X116856278Y-38377821D01*
X116821923Y-38384158D01*
X116795761Y-38396311D01*
X116337449Y-38660918D01*
X116024482Y-38118844D01*
X116672053Y-37744969D01*
X116705255Y-37719086D01*
X116724981Y-37687775D01*
X116730467Y-37656343D01*
X116724140Y-37621943D01*
X116712014Y-37595831D01*
X116453727Y-37148465D01*
X116427857Y-37115274D01*
X116396605Y-37095565D01*
X116365195Y-37090053D01*
X116330850Y-37096328D01*
X116304589Y-37108504D01*
X115540736Y-37549515D01*
X115507469Y-37575435D01*
X115487743Y-37606746D01*
X115482284Y-37638136D01*
X115488621Y-37672491D01*
X115500774Y-37698653D01*
G37*
G36*
X118180812Y-39419959D02*
G01*
X118970048Y-38964293D01*
X119003315Y-38938373D01*
X119023040Y-38907062D01*
X119028500Y-38875671D01*
X119022163Y-38841317D01*
X119010010Y-38815155D01*
X118751723Y-38367789D01*
X118726877Y-38336144D01*
X118696785Y-38316848D01*
X118630748Y-38315309D01*
X118602585Y-38327828D01*
X117929632Y-38716357D01*
X117809923Y-38509014D01*
X118315510Y-38217113D01*
X118347154Y-38192268D01*
X118366451Y-38162176D01*
X118367990Y-38096139D01*
X118355471Y-38067975D01*
X118099291Y-37624258D01*
X118074446Y-37592614D01*
X118044353Y-37573317D01*
X117978316Y-37571778D01*
X117950153Y-37584297D01*
X117444566Y-37876198D01*
X117194614Y-37443268D01*
X117852972Y-37063165D01*
X117886238Y-37037245D01*
X117905964Y-37005934D01*
X117911423Y-36974544D01*
X117905086Y-36940189D01*
X117892933Y-36914027D01*
X117634646Y-36466661D01*
X117608726Y-36433394D01*
X117577415Y-36413669D01*
X117546025Y-36408210D01*
X117511670Y-36414547D01*
X117485508Y-36426700D01*
X116710867Y-36873939D01*
X116677600Y-36899860D01*
X116657875Y-36931170D01*
X116652416Y-36962561D01*
X116658752Y-36996915D01*
X116670906Y-37023077D01*
X118031674Y-39379997D01*
X118056520Y-39411642D01*
X118086612Y-39430938D01*
X118152649Y-39432477D01*
X118180812Y-39419959D01*
G37*
G36*
X118803437Y-35803122D02*
G01*
X118868774Y-35821262D01*
X118934932Y-35852987D01*
X118998143Y-35897619D01*
X119065713Y-35962998D01*
X119130138Y-36044682D01*
X119300477Y-36314805D01*
X119449333Y-36597544D01*
X119498656Y-36742528D01*
X119504949Y-36885789D01*
X119467052Y-37011958D01*
X119432011Y-37068110D01*
X119386398Y-37118684D01*
X119500153Y-37097301D01*
X119564060Y-37100607D01*
X119625991Y-37115491D01*
X119687700Y-37143133D01*
X119746576Y-37183243D01*
X119805744Y-37239682D01*
X119860851Y-37310315D01*
X119995562Y-37518727D01*
X120108697Y-37739596D01*
X120117028Y-37757916D01*
X120162047Y-37915407D01*
X120166393Y-37991416D01*
X120159082Y-38065330D01*
X120139981Y-38137637D01*
X120109329Y-38206766D01*
X120065868Y-38274169D01*
X120010606Y-38337082D01*
X119941147Y-38396939D01*
X119859545Y-38450742D01*
X119394094Y-38719470D01*
X119367932Y-38731623D01*
X119333578Y-38737960D01*
X119302187Y-38732501D01*
X119270876Y-38712776D01*
X119244956Y-38679509D01*
X118655998Y-37659404D01*
X118937109Y-37659404D01*
X119142914Y-38015869D01*
X119564897Y-37772236D01*
X119612195Y-37741887D01*
X119688059Y-37665983D01*
X119712459Y-37587698D01*
X119705502Y-37540260D01*
X119683474Y-37490352D01*
X119662499Y-37454024D01*
X119649864Y-37434134D01*
X119585722Y-37376592D01*
X119544110Y-37363770D01*
X119497336Y-37363503D01*
X119432386Y-37380283D01*
X119359092Y-37415771D01*
X118937109Y-37659404D01*
X118655998Y-37659404D01*
X118126784Y-36742780D01*
X118407896Y-36742780D01*
X118720862Y-37284854D01*
X119142846Y-37041222D01*
X119202052Y-36999978D01*
X119261799Y-36923229D01*
X119274741Y-36878798D01*
X119275516Y-36830890D01*
X119261018Y-36770392D01*
X119229915Y-36704765D01*
X119164793Y-36591972D01*
X119122634Y-36531186D01*
X119045206Y-36469852D01*
X119000978Y-36456382D01*
X118953604Y-36455081D01*
X118894056Y-36468900D01*
X118829879Y-36499147D01*
X118407896Y-36742780D01*
X118126784Y-36742780D01*
X117884187Y-36322589D01*
X117872034Y-36296427D01*
X117865697Y-36262072D01*
X117871156Y-36230682D01*
X117890882Y-36199371D01*
X117924149Y-36173451D01*
X118389600Y-35904722D01*
X118411723Y-35892253D01*
X118586938Y-35817692D01*
X118735113Y-35796414D01*
X118803437Y-35803122D01*
G37*
G36*
X121039778Y-37798524D02*
G01*
X121247121Y-37678815D01*
X121336326Y-37620502D01*
X121408165Y-37558431D01*
X121456984Y-37500562D01*
X121492404Y-37439419D01*
X121513297Y-37379592D01*
X121522665Y-37316656D01*
X121506783Y-37180647D01*
X121438498Y-37019145D01*
X121430754Y-37005496D01*
X120193817Y-34863057D01*
X119975528Y-34989087D01*
X120905818Y-36600397D01*
X120945414Y-36680738D01*
X120968352Y-36755892D01*
X120974749Y-36817461D01*
X120968413Y-36875348D01*
X120921852Y-36974864D01*
X120825427Y-37065898D01*
X120775703Y-37097502D01*
X120696594Y-37136376D01*
X120622329Y-37158728D01*
X120561357Y-37164667D01*
X120503822Y-37157908D01*
X120404233Y-37110382D01*
X120312263Y-37012249D01*
X120280140Y-36961632D01*
X119349850Y-35350322D01*
X119131719Y-35476259D01*
X120368657Y-37618698D01*
X120426893Y-37707770D01*
X120488758Y-37779254D01*
X120546247Y-37827540D01*
X120606951Y-37862406D01*
X120666389Y-37882813D01*
X120728929Y-37891728D01*
X120864722Y-37875039D01*
X121027264Y-37805637D01*
X121039778Y-37798524D01*
G37*
%TO.C,J5*%
D14*
X52000000Y-58000000D02*
X52000000Y-62000000D01*
X52290000Y-54290000D02*
X54570000Y-54290000D01*
X52290000Y-64260000D02*
X52290000Y-54290000D01*
X52290000Y-64260000D02*
X67590000Y-64260000D01*
X52290000Y-65260000D02*
X52290000Y-64260000D01*
X54570000Y-54290000D02*
X54570000Y-54690000D01*
X54570000Y-54690000D02*
X57270000Y-54690000D01*
X57270000Y-54290000D02*
X67590000Y-54290000D01*
X57270000Y-54690000D02*
X57270000Y-54290000D01*
X67590000Y-54290000D02*
X67590000Y-65260000D01*
X67590000Y-65260000D02*
X52290000Y-65260000D01*
%TO.C,J7*%
X83170000Y-24010000D02*
X92290000Y-24010000D01*
X83170000Y-52210000D02*
X83170000Y-24010000D01*
X84480000Y-25310000D02*
X90980000Y-25310000D01*
X84480000Y-50910000D02*
X84480000Y-25310000D01*
X90980000Y-25310000D02*
X90980000Y-36060000D01*
X90980000Y-36060000D02*
X92290000Y-36060000D01*
X90980000Y-40160000D02*
X90980000Y-50910000D01*
X90980000Y-50910000D02*
X84480000Y-50910000D01*
X92290000Y-24010000D02*
X92290000Y-52210000D01*
X92290000Y-40160000D02*
X90980000Y-40160000D01*
X92290000Y-52210000D02*
X83170000Y-52210000D01*
X92680000Y-47000000D02*
X93680000Y-47500000D01*
X93680000Y-46500000D02*
X92680000Y-47000000D01*
X93680000Y-47500000D02*
X93680000Y-46500000D01*
%TO.C,J9*%
X88000000Y-58000000D02*
X88000000Y-62000000D01*
X88290000Y-54290000D02*
X90570000Y-54290000D01*
X88290000Y-64260000D02*
X88290000Y-54290000D01*
X88290000Y-64260000D02*
X103590000Y-64260000D01*
X88290000Y-65260000D02*
X88290000Y-64260000D01*
X90570000Y-54290000D02*
X90570000Y-54690000D01*
X90570000Y-54690000D02*
X93270000Y-54690000D01*
X93270000Y-54290000D02*
X103590000Y-54290000D01*
X93270000Y-54690000D02*
X93270000Y-54290000D01*
X103590000Y-54290000D02*
X103590000Y-65260000D01*
X103590000Y-65260000D02*
X88290000Y-65260000D01*
%TO.C,J3*%
X65170000Y-24010000D02*
X74290000Y-24010000D01*
X65170000Y-52210000D02*
X65170000Y-24010000D01*
X66480000Y-25310000D02*
X72980000Y-25310000D01*
X66480000Y-50910000D02*
X66480000Y-25310000D01*
X72980000Y-25310000D02*
X72980000Y-36060000D01*
X72980000Y-36060000D02*
X74290000Y-36060000D01*
X72980000Y-40160000D02*
X72980000Y-50910000D01*
X72980000Y-50910000D02*
X66480000Y-50910000D01*
X74290000Y-24010000D02*
X74290000Y-52210000D01*
X74290000Y-40160000D02*
X72980000Y-40160000D01*
X74290000Y-52210000D02*
X65170000Y-52210000D01*
X74680000Y-47000000D02*
X75680000Y-47500000D01*
X75680000Y-46500000D02*
X74680000Y-47000000D01*
X75680000Y-47500000D02*
X75680000Y-46500000D01*
%TO.C,J10*%
X106000000Y-58000000D02*
X106000000Y-62000000D01*
X106290000Y-54290000D02*
X108570000Y-54290000D01*
X106290000Y-64260000D02*
X106290000Y-54290000D01*
X106290000Y-64260000D02*
X121590000Y-64260000D01*
X106290000Y-65260000D02*
X106290000Y-64260000D01*
X108570000Y-54290000D02*
X108570000Y-54690000D01*
X108570000Y-54690000D02*
X111270000Y-54690000D01*
X111270000Y-54290000D02*
X121590000Y-54290000D01*
X111270000Y-54690000D02*
X111270000Y-54290000D01*
X121590000Y-54290000D02*
X121590000Y-65260000D01*
X121590000Y-65260000D02*
X106290000Y-65260000D01*
%TO.C,J2*%
X47170000Y-24010000D02*
X56290000Y-24010000D01*
X47170000Y-52210000D02*
X47170000Y-24010000D01*
X48480000Y-25310000D02*
X54980000Y-25310000D01*
X48480000Y-50910000D02*
X48480000Y-25310000D01*
X54980000Y-25310000D02*
X54980000Y-36060000D01*
X54980000Y-36060000D02*
X56290000Y-36060000D01*
X54980000Y-40160000D02*
X54980000Y-50910000D01*
X54980000Y-50910000D02*
X48480000Y-50910000D01*
X56290000Y-24010000D02*
X56290000Y-52210000D01*
X56290000Y-40160000D02*
X54980000Y-40160000D01*
X56290000Y-52210000D02*
X47170000Y-52210000D01*
X56680000Y-47000000D02*
X57680000Y-47500000D01*
X57680000Y-46500000D02*
X56680000Y-47000000D01*
X57680000Y-47500000D02*
X57680000Y-46500000D01*
%TO.C,J1*%
X29170000Y-24010000D02*
X38290000Y-24010000D01*
X29170000Y-52210000D02*
X29170000Y-24010000D01*
X30480000Y-25310000D02*
X36980000Y-25310000D01*
X30480000Y-50910000D02*
X30480000Y-25310000D01*
X36980000Y-25310000D02*
X36980000Y-36060000D01*
X36980000Y-36060000D02*
X38290000Y-36060000D01*
X36980000Y-40160000D02*
X36980000Y-50910000D01*
X36980000Y-50910000D02*
X30480000Y-50910000D01*
X38290000Y-24010000D02*
X38290000Y-52210000D01*
X38290000Y-40160000D02*
X36980000Y-40160000D01*
X38290000Y-52210000D02*
X29170000Y-52210000D01*
X38680000Y-47000000D02*
X39680000Y-47500000D01*
X39680000Y-46500000D02*
X38680000Y-47000000D01*
X39680000Y-47500000D02*
X39680000Y-46500000D01*
%TO.C,J6*%
X70000000Y-58000000D02*
X70000000Y-62000000D01*
X70290000Y-54290000D02*
X72570000Y-54290000D01*
X70290000Y-64260000D02*
X70290000Y-54290000D01*
X70290000Y-64260000D02*
X85590000Y-64260000D01*
X70290000Y-65260000D02*
X70290000Y-64260000D01*
X72570000Y-54290000D02*
X72570000Y-54690000D01*
X72570000Y-54690000D02*
X75270000Y-54690000D01*
X75270000Y-54290000D02*
X85590000Y-54290000D01*
X75270000Y-54690000D02*
X75270000Y-54290000D01*
X85590000Y-54290000D02*
X85590000Y-65260000D01*
X85590000Y-65260000D02*
X70290000Y-65260000D01*
%TO.C,J4*%
X34000000Y-58000000D02*
X34000000Y-62000000D01*
X34290000Y-54290000D02*
X36570000Y-54290000D01*
X34290000Y-64260000D02*
X34290000Y-54290000D01*
X34290000Y-64260000D02*
X49590000Y-64260000D01*
X34290000Y-65260000D02*
X34290000Y-64260000D01*
X36570000Y-54290000D02*
X36570000Y-54690000D01*
X36570000Y-54690000D02*
X39270000Y-54690000D01*
X39270000Y-54290000D02*
X49590000Y-54290000D01*
X39270000Y-54690000D02*
X39270000Y-54290000D01*
X49590000Y-54290000D02*
X49590000Y-65260000D01*
X49590000Y-65260000D02*
X34290000Y-65260000D01*
%TO.C,J8*%
X101170000Y-24010000D02*
X110290000Y-24010000D01*
X101170000Y-52210000D02*
X101170000Y-24010000D01*
X102480000Y-25310000D02*
X108980000Y-25310000D01*
X102480000Y-50910000D02*
X102480000Y-25310000D01*
X108980000Y-25310000D02*
X108980000Y-36060000D01*
X108980000Y-36060000D02*
X110290000Y-36060000D01*
X108980000Y-40160000D02*
X108980000Y-50910000D01*
X108980000Y-50910000D02*
X102480000Y-50910000D01*
X110290000Y-24010000D02*
X110290000Y-52210000D01*
X110290000Y-40160000D02*
X108980000Y-40160000D01*
X110290000Y-52210000D02*
X101170000Y-52210000D01*
X110680000Y-47000000D02*
X111680000Y-47500000D01*
X111680000Y-46500000D02*
X110680000Y-47000000D01*
X111680000Y-47500000D02*
X111680000Y-46500000D01*
%TD*%
M02*
